<svg xmlns="http://www.w3.org/2000/svg" xmlns:svg="http://www.w3.org/2000/svg" id="svg4460" width="24" height="24" version="1.1"><metadata id="metadata4465"/><g id="layer1" transform="translate(0,-1028.3622)"><g style="display:inline" id="airfield-24" transform="translate(-84,-262)"><g id="g12534"><path id="path6222" d="m 91.5,1294.3622 c -0.277,0 -0.5,0.223 -0.5,0.5 0,0.277 0.223,0.5 0.5,0.5 l 4,0 -0.5,3 0,1 -7,2 0,2 7,0 0,4 -2.5,1 0,1 8,0 0,-1 -2.5,-1 0,-1.9687 0,-2.0313 7,0 0,-2 -7,-2 0,-1 -0.5,-3 4,0 c 0.277,0 0.5,-0.223 0.5,-0.5 0,-0.277 -0.223,-0.5 -0.5,-0.5 z" style="opacity:.5;color:#000;fill:#fff;fill-opacity:1;fill-rule:nonzero;stroke:#fff;stroke-width:2;stroke-linecap:butt;stroke-linejoin:round;stroke-miterlimit:4;stroke-opacity:1;stroke-dasharray:none;stroke-dashoffset:0;marker:none;visibility:visible;display:inline;overflow:visible;enable-background:accumulate"/><path style="fill:#666;fill-opacity:1;stroke:none;display:inline" id="path6154" d="m 91.5,1294.3622 c -0.277,0 -0.5,0.223 -0.5,0.5 0,0.277 0.223,0.5 0.5,0.5 l 4,0 -0.5,3 0,1 -7,2 0,2 7,0 0,4 -2.5,1 0,1 8,0 0,-1 -2.5,-1 0,-1.9687 0,-2.0313 7,0 0,-2 -7,-2 0,-1 -0.5,-3 4,0 c 0.277,0 0.5,-0.223 0.5,-0.5 0,-0.277 -0.223,-0.5 -0.5,-0.5 z"/></g><rect id="rect6156" width="24" height="24" x="84" y="1290.362" style="opacity:.5;color:#000;fill:none;stroke:none;stroke-width:2;marker:none;visibility:visible;display:inline;overflow:visible;enable-background:accumulate"/></g></g></svg>