<svg xmlns="http://www.w3.org/2000/svg" xmlns:svg="http://www.w3.org/2000/svg" id="svg4619" width="18" height="18" version="1.1"><metadata id="metadata4624"/><g id="layer1" transform="translate(0,-1034.3622)"><path style="font-size:medium;font-style:normal;font-variant:normal;font-weight:400;font-stretch:normal;text-indent:0;text-align:start;text-decoration:none;line-height:normal;letter-spacing:normal;word-spacing:normal;text-transform:none;direction:ltr;block-progression:tb;writing-mode:lr-tb;text-anchor:start;baseline-shift:baseline;color:#000;fill:#fff;fill-opacity:1;stroke:none;stroke-width:2;marker:none;visibility:visible;display:inline;overflow:visible;enable-background:accumulate;font-family:Sans;-inkscape-font-specification:Sans;opacity:.3" id="path3008" d="M 5.71875,1 C 5.6870106,1.0088636 5.6557097,1.0192973 5.625,1.03125 4.6577909,1.21585 3.9971402,2.0193 4,3 4.000031,3.011 3.9998129,3.02125 4,3.03125 L 4,6 3,6 C 2.4764155,6.0000524 2.0000524,6.4764155 2,7 l 0,3 c 5.24e-5,0.523584 0.4764155,0.999948 1,1 l 1,0 0,3 c 2.134e-4,1.13 0.8700307,1.9998 2,2 l 9,0 c 1.129969,-2e-4 1.999786,-0.87 2,-2 L 17,3 C 16.999786,1.87 16.12997,1.0002 15,1 L 6.09375,1 6,1 C 5.906217,1 5.8123769,0.99 5.71875,1 z m 4,4 L 13,5 13,7.28125 z M 13,9.71875 13,12 9.71875,12 z" transform="translate(0,1034.3622)"/><path style="font-size:medium;font-style:normal;font-variant:normal;font-weight:400;font-stretch:normal;text-indent:0;text-align:start;text-decoration:none;line-height:normal;letter-spacing:normal;word-spacing:normal;text-transform:none;direction:ltr;block-progression:tb;writing-mode:lr-tb;text-anchor:start;baseline-shift:baseline;color:#000;fill:#667;fill-opacity:1;stroke:none;stroke-width:2.00017785999999997;marker:none;visibility:visible;display:inline;overflow:visible;enable-background:accumulate;font-family:Sans;-inkscape-font-specification:Sans" id="rect3795" d="M 5.8125,2 C 5.3541124,2.0874993 4.9918117,2.5334078 5,3 l 0,3 2,0 0,-2 7,0 0,9 -7,0 0,-2 -2,0 0,3 c 9.89e-5,0.523572 0.4764282,0.999901 1,1 l 9,0 c 0.523572,-9.9e-5 0.999901,-0.476428 1,-1 L 16,3 C 15.999901,2.4764282 15.523572,2.0000989 15,2 L 6,2 c -0.062316,-0.00587 -0.1251837,-0.00587 -0.1875,0 z" transform="translate(0,1034.3622)"/><path style="fill:#667;fill-opacity:1;stroke:#444;stroke-width:0;stroke-linecap:butt;stroke-linejoin:round;stroke-miterlimit:4;stroke-opacity:1;stroke-dasharray:none" id="rect3045" d="M 8 5 L 8 7 L 3 7 L 3 10 L 8 10 L 8 12 L 13 8.5 L 8 5 z" transform="translate(0,1034.3622)"/><rect style="color:#000;fill:#a3a3a3;fill-opacity:0;fill-rule:nonzero;stroke:none;stroke-width:1;marker:none;visibility:visible;display:inline;overflow:visible;enable-background:accumulate" id="rect3954" width="18" height="18" x="0" y="0" transform="translate(0,1034.3622)"/></g></svg>