<svg xmlns="http://www.w3.org/2000/svg" xmlns:svg="http://www.w3.org/2000/svg" id="svg4764" width="12" height="12" version="1.1"><metadata id="metadata4769"/><g id="layer1" transform="translate(0,-1040.3622)"><path style="fill:#667;fill-opacity:1;stroke:#fff;stroke-width:2;stroke-miterlimit:4;stroke-dasharray:none;stroke-linejoin:round;stroke-linecap:round" id="path5471" d="M 5.5 1 L 5.5 1.5 L 5 1.5 C 4.5 1.5 4 2 4 2.5 L 4 7 C 4 7.5 4.5 8 5 8 L 8 8 C 8.5 8 9 7.5 9 7 L 9 2.5 C 9 2 8.5 1.5 8 1.5 L 7.5 1.5 L 7.5 1 L 5.5 1 z M 5.625 2.5 C 5.7421875 2.4921875 5.875 2.5 6 2.5 L 7 2.5 C 7.5 2.5 8 2.5 8 3 L 8 5 L 5 5 L 5 3 C 5 2.625 5.2734375 2.5234375 5.625 2.5 z M 4.5 8.5 L 3.5 9 L 3.5 10 L 4.5 10 L 5.5 9 L 5.5 8.5 L 4.5 8.5 z M 7.46875 8.5 L 7.5 9 L 8.5 10 L 9.5 10 L 9.5 9 L 8.5 8.5 L 7.46875 8.5 z" transform="translate(0,1040.3622)"/><path style="fill:#667;fill-opacity:1;stroke:none" id="path3108" d="M 5,1.5 C 4.5,1.5 4,2 4,2.5 L 4,7 C 4,7.5 4.5,8 5,8 L 8,8 C 8.5,8 9,7.5 9,7 L 9,2.5 C 9,2 8.5,1.5 8,1.5 l -0.5,0 0,-0.5 -2,0 0,0.5 z m 1,1 1,0 c 0.5,0 1,0 1,0.5 L 8,5 5,5 5,3 C 5,2.5 5.5,2.5 6,2.5 z" transform="translate(0,1040.3622)"/><path style="fill:#667;fill-opacity:1;stroke:none" id="path3266" d="m 4.5,1048.8622 -1,0.5 0,1 1,0 1,-1 0,-0.5 z"/><path id="path3268" d="m 8.5,1048.8622 -1.02167,0 0.02167,0.5 1,1 1,0 0,-1 z" style="fill:#667;fill-opacity:1;stroke:none"/><rect style="color:#000;fill:#fff;fill-opacity:0;fill-rule:nonzero;stroke:none;stroke-width:1;marker:none;visibility:visible;display:inline;overflow:visible;enable-background:accumulate" id="rect6093" width="12" height="12" x="0" y="0" transform="translate(0,1040.3622)"/><path style="color:#000;fill:#fff;fill-opacity:1;fill-rule:nonzero;stroke:none;stroke-width:1;marker:none;visibility:visible;display:inline;overflow:visible;enable-background:accumulate" id="path3276" d="m 6,6.5 a 0.5,0.5 0 1 1 -1,0 0.5,0.5 0 1 1 1,0 z" transform="matrix(1.25,0,0,1.25,-1.25,1038.6122)"/><path id="path3278" d="m 6,6.5 a 0.5,0.5 0 1 1 -1,0 0.5,0.5 0 1 1 1,0 z" transform="matrix(1.25,0,0,1.25,0.5,1038.6122)" style="color:#000;fill:#fff;fill-opacity:1;fill-rule:nonzero;stroke:none;stroke-width:1;marker:none;visibility:visible;display:inline;overflow:visible;enable-background:accumulate"/></g></svg>