<svg xmlns="http://www.w3.org/2000/svg" xmlns:svg="http://www.w3.org/2000/svg" id="svg3122" width="12" height="12" version="1.1"><metadata id="metadata3127"/><g id="layer1" transform="matrix(0.49999928,0,0,0.49999928,0,-514.18035)"><rect id="rect3817-1-9" width="24" height="8" x="0" y="1036.362" rx="2" ry="2" style="color:#000;fill:#fff;fill-opacity:1;fill-rule:nonzero;stroke:none;stroke-width:1.33333325;marker:none;visibility:visible;display:inline;overflow:visible;enable-background:accumulate"/><path id="path4036" d="m 13,20 a 4,4 0 1 1 -8,0 4,4 0 1 1 8,0 z" transform="matrix(2.500005,0,0,2.500005,-10.500045,990.36212)" style="color:#000;fill:#fff;fill-opacity:1;fill-rule:nonzero;stroke:none;stroke-width:.74999994;marker:none;visibility:visible;display:inline;overflow:visible;enable-background:accumulate"/><rect id="rect3901" width="24" height="24" x="0" y="1028.362" style="color:#000;fill:#fff;fill-opacity:0;fill-rule:nonzero;stroke:none;stroke-width:.99999994;marker:none;visibility:visible;display:inline;overflow:visible;enable-background:accumulate"/><path id="path3903" d="m 13,20 a 4,4 0 1 1 -8,0 4,4 0 1 1 8,0 z" transform="matrix(2,0,0,2,-6,1000.3622)" style="color:#000;fill:#f02a10;fill-opacity:1;fill-rule:nonzero;stroke:none;stroke-width:.74999994;marker:none;visibility:visible;display:inline;overflow:visible;enable-background:accumulate"/><path id="path4034" d="m 13,20 a 4,4 0 1 1 -8,0 4,4 0 1 1 8,0 z" transform="matrix(1.2500175,0,0,1.2500175,0.749833,1015.3619)" style="color:#000;fill:#fff;fill-opacity:1;fill-rule:nonzero;stroke:none;stroke-width:.74999994;marker:none;visibility:visible;display:inline;overflow:visible;enable-background:accumulate"/><rect id="rect3827-1-4" width="20" height="4" x="2" y="1038.362" rx=".5" ry=".5" style="color:#000;fill:#104998;fill-opacity:1;fill-rule:nonzero;stroke:none;stroke-width:1.33333325;marker:none;visibility:visible;display:inline;overflow:visible;enable-background:accumulate"/></g></svg>