<svg xmlns="http://www.w3.org/2000/svg" xmlns:svg="http://www.w3.org/2000/svg" id="svg3122" width="18" height="18" version="1.1"><metadata id="metadata3127"/><g id="layer1" transform="translate(0,-1034.3622)"><path id="path3833" d="m 13,20 a 4,4 0 1 1 -8,0 4,4 0 1 1 8,0 z" transform="matrix(2,0,0,2,-9,1003.3622)" style="color:#000;fill:#fff;fill-opacity:1;fill-rule:nonzero;stroke:none;stroke-width:.99999994;marker:none;visibility:visible;display:inline;overflow:visible;enable-background:accumulate"/><rect id="rect3817-1" width="18" height="6" x="0" y="1040.362" rx="2" ry="2" style="color:#000;fill:#fff;fill-opacity:1;fill-rule:nonzero;stroke:none;stroke-width:1.33333325;marker:none;visibility:visible;display:inline;overflow:visible;enable-background:accumulate"/><path id="path3808" d="m 9,1037.3622 c -3.313708,0 -6,2.6863 -6,6 0,3.3137 2.686292,6 6,6 3.313708,0 6,-2.6863 6,-6 0,-3.3137 -2.686292,-6 -6,-6 z m 0,2.5 c 1.932997,0 3.5,1.567 3.5,3.5 0,1.933 -1.567003,3.5 -3.5,3.5 -1.932997,0 -3.5,-1.567 -3.5,-3.5 0,-1.933 1.567003,-3.5 3.5,-3.5 z" style="color:#000;fill:#f02a10;fill-opacity:1;fill-rule:nonzero;stroke:none;stroke-width:.99999994;marker:none;visibility:visible;display:inline;overflow:visible;enable-background:accumulate"/><rect id="rect3810" width="18" height="18" x="0" y="1034.362" style="color:#000;fill:#fff;fill-opacity:0;fill-rule:nonzero;stroke:none;stroke-width:.99999994;marker:none;visibility:visible;display:inline;overflow:visible;enable-background:accumulate"/><rect id="rect3827-1" width="14" height="2" x="2" y="1042.362" rx=".5" ry=".5" style="color:#000;fill:#104998;fill-opacity:1;fill-rule:nonzero;stroke:none;stroke-width:1.33333325;marker:none;visibility:visible;display:inline;overflow:visible;enable-background:accumulate"/></g></svg>