<svg xmlns="http://www.w3.org/2000/svg" xmlns:svg="http://www.w3.org/2000/svg" id="svg3122" width="36" height="12" version="1.1"><metadata id="metadata3127"/><g id="layer0" transform="matrix(0.49999928,0,0,0.49999928,0,-514.18033)"><rect id="rect4074" width="24" height="8" x="0" y="1036.362" rx="2" ry="2" style="color:#000;fill:#fff;fill-opacity:1;fill-rule:nonzero;stroke:none;stroke-width:1.33333325;marker:none;visibility:visible;display:inline;overflow:visible;enable-background:accumulate"/><path id="path4076" d="m 13,20 a 4,4 0 1 1 -8,0 4,4 0 1 1 8,0 z" transform="matrix(2.500005,0,0,2.500005,-10.500048,990.36212)" style="color:#000;fill:#fff;fill-opacity:1;fill-rule:nonzero;stroke:none;stroke-width:.74999994;marker:none;visibility:visible;display:inline;overflow:visible;enable-background:accumulate"/><rect id="rect4078" width="24" height="24" x="0" y="1028.362" style="color:#000;fill:#fff;fill-opacity:0;fill-rule:nonzero;stroke:none;stroke-width:.99999994;marker:none;visibility:visible;display:inline;overflow:visible;enable-background:accumulate"/><path id="path4080" d="m 13,20 a 4,4 0 1 1 -8,0 4,4 0 1 1 8,0 z" transform="matrix(2,0,0,2,-6.000003,1000.3622)" style="color:#000;fill:#ff9701;fill-opacity:1;fill-rule:nonzero;stroke:none;stroke-width:.74999994;marker:none;visibility:visible;display:inline;overflow:visible;enable-background:accumulate"/><path id="path4082" d="m 13,20 a 4,4 0 1 1 -8,0 4,4 0 1 1 8,0 z" transform="matrix(1.2500175,0,0,1.2500175,0.74983,1015.3619)" style="color:#000;fill:#fff;fill-opacity:1;fill-rule:nonzero;stroke:none;stroke-width:.74999994;marker:none;visibility:visible;display:inline;overflow:visible;enable-background:accumulate"/><rect id="rect4084" width="20" height="4" x="2" y="1038.362" rx=".5" ry=".5" style="color:#000;fill:#104998;fill-opacity:1;fill-rule:nonzero;stroke:none;stroke-width:1.33333325;marker:none;visibility:visible;display:inline;overflow:visible;enable-background:accumulate"/></g><g id="layer1" transform="matrix(0.49999928,0,0,0.49999928,11.999983,-514.18033)"><rect id="rect3817-1-9" width="24" height="8" x="0" y="1036.362" rx="2" ry="2" style="color:#000;fill:#fff;fill-opacity:1;fill-rule:nonzero;stroke:none;stroke-width:1.33333325;marker:none;visibility:visible;display:inline;overflow:visible;enable-background:accumulate"/><path id="path4036" d="m 13,20 a 4,4 0 1 1 -8,0 4,4 0 1 1 8,0 z" transform="matrix(2.500005,0,0,2.500005,-10.500045,990.36212)" style="color:#000;fill:#fff;fill-opacity:1;fill-rule:nonzero;stroke:none;stroke-width:.74999994;marker:none;visibility:visible;display:inline;overflow:visible;enable-background:accumulate"/><rect id="rect3901" width="24" height="24" x="0" y="1028.362" style="color:#000;fill:#fff;fill-opacity:0;fill-rule:nonzero;stroke:none;stroke-width:.99999994;marker:none;visibility:visible;display:inline;overflow:visible;enable-background:accumulate"/><path id="path3903" d="m 13,20 a 4,4 0 1 1 -8,0 4,4 0 1 1 8,0 z" transform="matrix(2,0,0,2,-6,1000.3622)" style="color:#000;fill:#f02a10;fill-opacity:1;fill-rule:nonzero;stroke:none;stroke-width:.74999994;marker:none;visibility:visible;display:inline;overflow:visible;enable-background:accumulate"/><path id="path4034" d="m 13,20 a 4,4 0 1 1 -8,0 4,4 0 1 1 8,0 z" transform="matrix(1.2500175,0,0,1.2500175,0.749833,1015.3619)" style="color:#000;fill:#fff;fill-opacity:1;fill-rule:nonzero;stroke:none;stroke-width:.74999994;marker:none;visibility:visible;display:inline;overflow:visible;enable-background:accumulate"/><rect id="rect3827-1-4" width="20" height="4" x="2" y="1038.362" rx=".5" ry=".5" style="color:#000;fill:#104998;fill-opacity:1;fill-rule:nonzero;stroke:none;stroke-width:1.33333325;marker:none;visibility:visible;display:inline;overflow:visible;enable-background:accumulate"/></g><g id="layer1-9" transform="translate(24,-1040.3622)"><rect id="rect3806" width="12" height="10" x="0" y="1041.362" rx="2" ry="2" style="color:#000;fill:#fff;fill-opacity:1;fill-rule:nonzero;stroke:none;stroke-width:1.33333325;marker:none;visibility:visible;display:inline;overflow:visible;enable-background:accumulate"/><rect id="rect3765" width="12" height="12" x="0" y="1040.362" style="color:#000;fill:#fff;fill-opacity:0;fill-rule:nonzero;stroke:none;stroke-width:.99999994;marker:none;visibility:visible;display:inline;overflow:visible;enable-background:accumulate"/><rect id="rect3025" width="10" height="8" x="1" y="1042.362" rx="1" ry="1" style="color:#000;fill:#f02a10;fill-opacity:1;fill-rule:nonzero;stroke:none;stroke-width:1.33333325;marker:none;visibility:visible;display:inline;overflow:visible;enable-background:accumulate"/><path style="color:#000;fill:#fff;fill-opacity:1;fill-rule:nonzero;stroke:none;stroke-width:1.33333325;marker:none;visibility:visible;display:inline;overflow:visible;enable-background:accumulate" id="rect3795" d="m 1,1044.3622 10,0 0,1 -10,0 z"/><path style="color:#000;fill:#fff;fill-opacity:1;fill-rule:nonzero;stroke:none;stroke-width:1.33333325;marker:none;visibility:visible;display:inline;overflow:visible;enable-background:accumulate" id="rect3797" d="m 1,1047.3622 10,0 0,1 -10,0 z"/><path id="path4032" d="m 2.5,1041.8622 2,0 5,3 -5,3 5,3 -2,0 -5,-3 5,-3 z" style="color:#000;fill:#fff;fill-opacity:1;fill-rule:nonzero;stroke:none;stroke-width:.99999994;marker:none;visibility:visible;display:inline;overflow:visible;enable-background:accumulate"/></g></svg>