<svg xmlns="http://www.w3.org/2000/svg" xmlns:svg="http://www.w3.org/2000/svg" id="Layer_1" width="12" height="12" x="0" y="0" enable-background="new 0 0 400 400" version="1.1" viewBox="0 0 12 12" xml:space="preserve"><metadata id="metadata8"/><g id="g3807"><path id="path3019" d="M 12,6.0297427 C 12,2.6998285 9.2098183,0 6.0147737,0 2.6996979,0 0,2.6998285 0,6.0297427 0,9.3294853 2.6996979,12 6.0147737,12 9.3298483,12 12,9.344314 12,6.0297427" style="fill:#fff;fill-opacity:1;display:inline"/><path style="fill:#104e81;fill-opacity:1;display:inline" id="path3076" d="M 10.999999,6.0247855 C 10.999999,3.2498571 8.674848,1 6.012311,1 3.249748,1 1,3.2498571 1,6.0247855 1,8.7745711 3.249748,11 6.012311,11 8.774873,11 10.999999,8.7869283 10.999999,6.0247855"/><path style="fill:#fff;fill-opacity:1;stroke:none;display:inline" id="path3099" d="m 8.9999998,8.5 a 2.8648155,5 0 1 1 -5.729631,0 2.8648155,5 0 1 1 5.729631,0 z" transform="matrix(1.3962505,0,0,0.8,-2.5662541,-0.8)"/><path id="rect3032" d="m 4,3.5 0,5 1,0 0,-2.5 0.5,0.5 0,1 1,0 0,-1 L 7,6 7,8.5 8,8.5 8,3.5 7.5,3.5 7,4 6.5,4.5 6,5.5 6,5.5 5.5,4.5 5,4 4.5,3.5 z" style="fill:#104e81;fill-opacity:1;stroke:none"/></g></svg>