<svg xmlns="http://www.w3.org/2000/svg" xmlns:svg="http://www.w3.org/2000/svg" id="svg3241" width="24" height="12" version="1.1"><metadata id="metadata3246"/><g id="layer1" transform="translate(0,-1040.3622)"><g id="g3852"><path id="path3019" d="m 11.9999,1046.3919 c 0,-3.3299 -2.790182,-6.0297 -5.9852263,-6.0297 -3.3150758,0 -6.0147737,2.6998 -6.0147737,6.0297 0,3.2998 2.6996979,5.9703 6.0147737,5.9703 3.3150743,0 5.9852263,-2.6557 5.9852263,-5.9703" style="fill:#fff;fill-opacity:1;display:inline"/><path style="fill:#104e81;fill-opacity:1;display:inline" id="path3076" d="m 11.01221,1046.387 c 0,-2.7749 -2.325151,-5.0248 -4.987688,-5.0248 -2.762563,0 -5.012311,2.2499 -5.012311,5.0248 0,2.7498 2.249748,4.9752 5.012311,4.9752 2.762562,0 4.987688,-2.2131 4.987688,-4.9752"/><path style="fill:#fff;fill-opacity:1;stroke:none;display:inline" id="path3099" d="m 8.9999998,8.5 a 2.8648155,5 0 1 1 -5.729631,0 2.8648155,5 0 1 1 5.729631,0 z" transform="matrix(1.3962505,0,0,0.8,-2.5663541,1039.5622)"/><path id="rect3032" d="m 4.012211,1043.8622 0,5 1,0 0,-2.5 0.5,0.5 0,1 1,0 0,-1 0.5,-0.5 0,2.5 1,0 0,-5 -0.5,0 -0.5,0.5 -0.5,0.5 -0.5,1 0,0 -0.5,-1 -0.5,-0.5 -0.5,-0.5 z" style="fill:#104e81;fill-opacity:1;stroke:none"/><path style="fill:#fff;fill-opacity:1" id="path3028" d="m 24,1046.392 c 0,-3.33 -2.790109,-6.0298 -5.984427,-6.0298 -3.315224,0 -6.015573,2.6998 -6.015573,6.0298 0,3.2845 2.700349,5.9702 6.015573,5.9702 3.314742,0 5.984427,-2.6557 5.984427,-5.9702"/><path id="path3324" d="m 23,1046.3622 c 0,-2.7749 -2.325091,-5.0248 -4.987023,-5.0248 -2.762686,0 -5.012977,2.2499 -5.012977,5.0248 0,2.7371 2.250291,4.9752 5.012977,4.9752 2.762285,0 4.987023,-2.2131 4.987023,-4.9752" style="fill:#104e81;fill-opacity:1"/><path id="path3314" d="m 22,1046.3911 c 0,2.1767 -1.797274,3.9711 -3.987963,3.9711 -2.203157,0 -4.012037,-1.783 -4.012037,-3.9711 0,-2.2109 1.80888,-4.0289 4.012037,-4.0289 2.190689,0 3.987963,1.8293 3.987963,4.0289 z" style="fill:#fff;fill-opacity:1"/><path style="fill:#fff;fill-opacity:1" id="path3066" d="m 22,1046.3911 c 0,2.1767 -1.797274,3.9711 -3.987963,3.9711 -2.203157,0 -4.012037,-1.783 -4.012037,-3.9711 0,-2.2109 1.80888,-4.0289 4.012037,-4.0289 2.190689,0 3.987963,1.8293 3.987963,4.0289 z"/><path id="rect3068" d="m 17,1044.3622 0,4 2,0 0,-0.75 -1.5,0 0,-1.25 1.5,0 0,-0.5 -1.5,0 0,-1 1.5,0 0,-0.5 -2,0 z" style="fill:#104e81;fill-opacity:1;stroke:none"/><path id="path3074" d="m 14.5,1044.3622 0,1 0,2 0,1 0.5,0 0,-1.5 0.5,0 0.5,1.5 1,0 -1,-2 0.75,-1 -0.03125,0 -0.71875,-1 -1.5,0 z m 0.5,0.5 0.5,0 0.5,0.5 -1,1 0,-1.5 z" style="fill:#104e81;fill-opacity:1;stroke:none"/><path id="path3120" d="m 19.5,1044.3622 0,1 0,2 0,1 0.5,0 0,-1.5 0.5,0 0.5,1.5 1,0 -1,-2 0.75,-1 -0.03125,0 -0.71875,-1 -1.5,0 z m 0.5,0.5 0.5,0 0.5,0.5 -1,1 0,-1.5 z" style="fill:#104e81;fill-opacity:1;stroke:none"/></g></g></svg>