<svg xmlns="http://www.w3.org/2000/svg" xmlns:svg="http://www.w3.org/2000/svg" id="svg3253" width="18" height="18" version="1.1" viewBox="0 40 18 18"><metadata id="metadata3263"/><g id="g3008"><path id="path2990" d="m 9,41 c -5.1112105,0 -9,4.522391 -9,9.5 0,2.74869 1.375,4.6875 1.375,4.6875 A 2.0076702,2.0076702 0 0 0 3,56 l 12,0 a 2.0076702,2.0076702 0 0 0 1.6875,-0.90625 C 16.6875,55.09375 18,53.1617 18,50.5 18.000077,45.522365 14.111202,41 9,41 z" style="fill:#fff"/><path style="fill:#104e81;fill-opacity:1" id="path3255" d="M 9,43 C 5.1339817,43 1.9999999,46.599811 1.9999999,50.502793 1.9999999,52.619103 3,54 3,54 l 12,0 c 0,0 1,-1.508477 1,-3.497239 C 16.00006,46.599811 12.865989,43 9,43 z"/><path id="path2995" d="m 9,44 c -3.2517787,0 -6,3.127119 -6,6.5 0,1.331684 0.3619229,2.090242 0.59375,2.5 l 10.8125,0 C 14.646251,52.540379 15,51.712617 15,50.5 15.000052,47.12718 12.251739,44 9,44 z" style="fill:#fff"/><path style="fill:#eb3c00;fill-opacity:1" id="path3257" d="M 13,51 11,45 9,48.5 7,45 l -2,6 -1,0 0,1 4,0 0,-1 -1.5,0 1,-2.5 1.5,3 1.5,-3 1,2.5 -1.5,0 0,1 4,0 0,-1 z"/><path id="rect2992" d="m 0,40 18,0 0,18 -18,0 z" style="fill:#fff;fill-opacity:0;stroke:none"/></g></svg>