<svg xmlns="http://www.w3.org/2000/svg" xmlns:svg="http://www.w3.org/2000/svg" id="svg3253" width="12" height="12" version="1.1" viewBox="0 40 12 12"><metadata id="metadata3263"/><path style="fill:#fff" id="path3008" d="m 6,41 c -3.4075194,0 -6,3.183946 -6,6.5 0,1.824426 0.90625,3.09375 0.90625,3.09375 A 0.98682704,0.98682704 0 0 0 1.71875,51 l 8.5625,0 a 0.98682704,0.98682704 0 0 0 0.8125,-0.46875 C 11.09375,50.53125 12,49.253379 12,47.5 12.000051,44.18394 9.4075096,41 6,41 z"/><path style="fill:#104e81;fill-opacity:1" id="path3025" d="M 6,42 C 3.238559,42 1,44.714151 1,47.501995 1,49.013645 1.714285,50 1.714285,50 l 8.57143,0 C 10.285715,50 11,48.922516 11,47.501972 11.000043,44.714151 8.761421,42 6,42 z"/><path id="path3027" d="m 6,43 c -2.0998831,0 -4,2.253021 -4,4.5 0,0.935575 0.2670829,1.26769 0.40625,1.5 L 9.5625,49 C 9.7111322,48.724718 10,48.336224 10,47.5 10.000035,45.253074 8.0998527,43 6,43 z" style="fill:#fff"/><path style="fill:#eb3c00;fill-opacity:1" id="path3029" d="M 9.5,48.5 7.5,44 7,44 6,46.071428 5,44 l -0.5,0 -2,4.5 c 0.6851572,0 1.0683322,0 1.5,0 l 0.5,-2 0.5,0 0.5,2 1,0 0.5,-2 0.5,0 0.5,2 c 0.5380057,0 0.8759528,0 1.5,0 z"/><path style="fill:#fff;fill-opacity:0;stroke:none" id="rect3010" d="m 0,40 12,0 0,12 -12,0 z"/></svg>