<svg xmlns="http://www.w3.org/2000/svg" xmlns:svg="http://www.w3.org/2000/svg" id="svg4619" width="18" height="18" version="1.1"><metadata id="metadata4624"/><g id="layer1" transform="translate(0,-1034.3622)"><path style="fill:#667;fill-opacity:1;stroke:#fff;stroke-width:4;stroke-miterlimit:4;stroke-dasharray:none;stroke-linejoin:round;stroke-linecap:round" id="path6609" d="M 7.9375 2 C 6 2 4 3 4 5 L 4 10.25 L 4 11 C 4 11.554 4.446 12 5 12 L 14 12 C 14.554 12 15 11.554 15 11 L 15 10.25 L 15 5 C 15 3 13 2 11.0625 2 L 7.9375 2 z M 8 3 L 11 3 L 11 4 L 8 4 L 8 3 z M 6.5 5 L 12.5 5 L 13 5.5 L 13 7.5 L 12.5 8 L 6.5 8 L 6 7.5 L 6 5.5 L 6.5 5 z M 6 13 L 4 14 L 4 15 L 7 15 L 8 14 L 8 13 L 6 13 z M 11 13 L 11 14 L 12 15 L 15 15 L 15 14 L 13 13 L 11 13 z" transform="translate(0,1034.3622)"/><path style="fill:#667;fill-opacity:1;stroke:none" id="rect3226" d="M 7.9375,2 C 6,2 4,3 4,5 L 4,10.25 4,11 c 0,0.554 0.446,1 1,1 l 9,0 c 0.554,0 1,-0.446 1,-1 L 15,10.25 15,5 C 15,3 13,2 11.0625,2 z M 8,3 11,3 11,4 8,4 z M 6,5.5 6.5,5 l 6,0 0.5,0.5 0,2 L 12.5,8 6.5,8 6,7.5 z" transform="translate(0,1034.3622)"/><path style="fill:#667;fill-opacity:1;stroke:none" id="path3787-5" d="m 8,1047.3622 -2,0 -2,1 0,1 3,0 1,-1 z"/><path id="path3122" d="m 11,1047.3622 2,0 2,1 0,1 -3,0 -1,-1 z" style="fill:#667;fill-opacity:1;stroke:none"/><rect style="color:#000;fill:#fff;fill-opacity:0;fill-rule:nonzero;stroke:none;stroke-width:1;marker:none;visibility:visible;display:inline;overflow:visible;enable-background:accumulate" id="rect7990" width="18" height="18" x="0" y="0" transform="translate(0,1034.3622)"/><path style="color:#000;fill:#fff;fill-opacity:1;fill-rule:nonzero;stroke:none;stroke-width:4;marker:none;visibility:visible;display:inline;overflow:visible;enable-background:accumulate" id="path6097" d="m 7,10 a 0.5,1 0 1 1 -1,0 0.5,1 0 1 1 1,0 z" transform="matrix(1.75,0,0,0.875,-4.5,1035.4872)"/><path id="path6607" d="m 7,10 a 0.5,1 0 1 1 -1,0 0.5,1 0 1 1 1,0 z" transform="matrix(1.75,0,0,0.875,0.75,1035.4872)" style="color:#000;fill:#fff;fill-opacity:1;fill-rule:nonzero;stroke:none;stroke-width:4;marker:none;visibility:visible;display:inline;overflow:visible;enable-background:accumulate"/></g></svg>