<svg xmlns="http://www.w3.org/2000/svg" xmlns:svg="http://www.w3.org/2000/svg" id="svg4764" width="12" height="12" version="1.1"><metadata id="metadata4769"/><g id="layer1" transform="translate(0,-1040.3622)"><path style="fill:#667;fill-opacity:1;stroke:#fff;stroke-width:2;stroke-linecap:round;stroke-linejoin:round;stroke-miterlimit:4;stroke-dasharray:none" id="path6616" d="M 6,1 C 4,1 3,2 3,3 L 3,7.75 3.25,8 9.75,8 10,7.75 10,3 C 10,2 9,1 7,1 z M 5,2 8,2 8,2.5 5,2.5 z M 4.25,3.5 8.75,3.5 9,3.75 9,4.75 8.75,5 4.25,5 4,4.75 4,3.75 z M 4,8.5 3,9 l 0,1 1.5,0 1,-1 0,-0.5 z m 3.5,0 0,0.5 1,1 1.5,0 0,-1 -1,-0.5 z" transform="translate(0,1040.3622)"/><path style="fill:#667;fill-opacity:1;stroke:none" id="path3212" d="M 6,1 C 4,1 3,2 3,3 L 3,7.75 3.25,8 9.75,8 10,7.75 10,3 C 10,2 9,1 7,1 z M 5,2 8,2 8,2.5 5,2.5 z M 4,3.75 4.25,3.5 8.75,3.5 9,3.75 9,4.75 8.75,5 4.25,5 4,4.75 z" transform="translate(0,1040.3622)"/><path style="fill:#667;fill-opacity:1;stroke:none" id="path3266" d="m 4,1048.8622 -1,0.5 0,1 1.5,0 1,-1 0,-0.5 z"/><path id="path3268" d="m 9,1048.8622 -1.5,0 0,0.5 1,1 1.5,0 0,-1 z" style="fill:#667;fill-opacity:1;stroke:none"/><rect style="color:#000;fill:#fff;fill-opacity:0;fill-rule:nonzero;stroke:none;stroke-width:1;marker:none;visibility:visible;display:inline;overflow:visible;enable-background:accumulate" id="rect7366" width="12" height="12" x="0" y="0" transform="translate(0,1040.3622)"/><path style="color:#000;fill:#fff;fill-opacity:1;fill-rule:nonzero;stroke:none;stroke-width:1;marker:none;visibility:visible;display:inline;overflow:visible;enable-background:accumulate" id="path3182" d="m 5,6.5 a 0.5,0.5 0 1 1 -1,0 0.5,0.5 0 1 1 1,0 z" transform="matrix(1.2499746,0,0,1.2499746,-0.99987285,1038.6124)"/><path id="path3184" d="m 5,6.5 a 0.5,0.5 0 1 1 -1,0 0.5,0.5 0 1 1 1,0 z" transform="matrix(1.2499746,0,0,1.2499746,2.750127,1038.6124)" style="color:#000;fill:#fff;fill-opacity:1;fill-rule:nonzero;stroke:none;stroke-width:1;marker:none;visibility:visible;display:inline;overflow:visible;enable-background:accumulate"/></g></svg>