<svg xmlns="http://www.w3.org/2000/svg" xmlns:svg="http://www.w3.org/2000/svg" id="Layer_1" width="12" height="12" x="0" y="0" enable-background="new 0 0 400 400" version="1.1" viewBox="0 0 12 12" xml:space="preserve"><metadata id="metadata8"/><g id="g3843"><path style="fill:#fff;fill-opacity:1" id="path3028" d="M 12,6.0297591 C 12,2.6998192 9.2098906,0 6.0155729,0 2.7003489,0 0,2.6998192 0,6.0297591 0,9.3142615 2.7003489,12 6.0155729,12 9.3303147,12 12,9.3442614 12,6.0297591"/><path id="path3324" d="M 11,6 C 11,3.2250502 8.6749086,0.9752009 6.0129773,0.9752009 3.2502906,0.9752009 1,3.2250502 1,6 1,8.7370854 3.2502906,10.975201 6.0129773,10.975201 8.7752621,10.975201 11,8.7620854 11,6" style="fill:#104e81;fill-opacity:1"/><path id="path3314" d="M 10,6.0289384 C 10,8.2056007 8.2027264,10 6.0120374,10 3.8088799,10 2,8.2170271 2,6.0289384 2,3.8180432 3.8088799,2 6.0120374,2 8.2027264,2 10,3.8292835 10,6.0289384 z" style="fill:#fff;fill-opacity:1"/><path style="fill:#fff;fill-opacity:1" id="path3066" d="M 10,6.0289384 C 10,8.2056007 8.2027264,10 6.0120374,10 3.8088799,10 2,8.2170271 2,6.0289384 2,3.8180432 3.8088799,2 6.0120374,2 8.2027264,2 10,3.8292835 10,6.0289384 z"/><path id="rect3068" d="M 5 4 L 5 8 L 7 8 L 7 7.25 L 5.5 7.25 L 5.5 6 L 7 6 L 7 5.5 L 5.5 5.5 L 5.5 4.5 L 7 4.5 L 7 4 L 5 4 z" style="fill:#104e81;fill-opacity:1;stroke:none"/><path id="path3074" d="M 2.5 4 L 2.5 5 L 2.5 7 L 2.5 8 L 3 8 L 3 6.5 L 3.5 6.5 L 4 8 L 5 8 L 4 6 L 4.75 5 L 4.71875 5 L 4 4 L 2.5 4 z M 3 4.5 L 3.5 4.5 L 4 5 L 3 6 L 3 4.5 z" style="fill:#104e81;fill-opacity:1;stroke:none"/><path id="path3120" d="M 7.5 4 L 7.5 5 L 7.5 7 L 7.5 8 L 8 8 L 8 6.5 L 8.5 6.5 L 9 8 L 10 8 L 9 6 L 9.75 5 L 9.71875 5 L 9 4 L 7.5 4 z M 8 4.5 L 8.5 4.5 L 9 5 L 8 6 L 8 4.5 z" style="fill:#104e81;fill-opacity:1;stroke:none"/></g></svg>