<svg xmlns="http://www.w3.org/2000/svg" xmlns:svg="http://www.w3.org/2000/svg" id="svg3042" width="24" height="12" version="1.1"><metadata id="metadata3047"/><g id="layer1" transform="translate(0,-1040.3622)"><g id="g3010"><g id="g3812" transform="translate(1137.7177,33.7637)"><path id="path3901-7" d="m -1123.3177,1006.5984 7.2,0 c 1.3296,0 2.4,1.0704 2.4,2.4 l 0,7.2 c 0,1.3296 -1.0704,2.4 -2.4,2.4 l -7.2,0 c -1.3296,0 -2.4,-1.0704 -2.4,-2.4 l 0,-7.2 c 0,-1.3296 1.0704,-2.4 2.4,-2.4 z" style="fill:#fff;fill-opacity:1;stroke:none"/><path style="fill:#0079ac;fill-opacity:1;stroke:none" id="rect4162" d="m -1122.7177,1007.5984 6,0 c 1.108,0 2,0.892 2,2 l 0,6 c 0,1.108 -0.892,2 -2,2 l -6,0 c -1.108,0 -2,-0.892 -2,-2 l 0,-6 c 0,-1.108 0.892,-2 2,-2 z"/><path style="fill:#fff;fill-opacity:1;stroke:none" id="path4169-9" d="m -1122.7188,1008.5938 c -0.572,0 -1,0.4279 -1,1 l 0,6 c 0,0.5717 0.4283,1 1,1 l 6,0 c 0.5721,0 1,-0.4281 1,-1 l 0,-6 c 0,-0.5721 -0.4279,-1 -1,-1 l -6,0 z" transform="translate(0.0011,0.0047)"/><path style="fill:#0079ac;fill-opacity:1;stroke:none;display:inline" id="rect3046-3" d="M 4.75,3 C 4.3345,3 4,3.3345 4,3.75 l 0,3.5 C 4,7.6655 4.3345,8 4.75,8 L 5,8 3.5,9.5 l 1,0 1,-1 1,0 1,1 1,0 L 7,8 7.25,8 C 7.6655,8 8,7.6655 8,7.25 L 8,3.75 C 8,3.3345 7.6655,3 7.25,3 l -2.5,0 z m 0,1 2.5,0 C 7.3885,4 7.5,4.1115 7.5,4.25 l 0,0.5 C 7.5,4.8885 7.3885,5 7.25,5 L 4.75,5 C 4.6115,5 4.5,4.8885 4.5,4.75 l 0,-0.5 C 4.5,4.1115 4.6115,4 4.75,4 z M 4.5,6 5,6 5,6.5 4.5,6.5 4.5,6 z M 7,6 7.5,6 7.5,6.5 7,6.5 7,6 z" transform="translate(-1125.7177,1006.5985)"/></g><g id="g3843" transform="translate(0,1040.3622)"><path id="path3028-0" d="M 12,6.0297591 C 12,2.6998192 9.2098906,0 6.0155729,0 2.7003489,0 0,2.6998192 0,6.0297591 0,9.3142615 2.7003489,12 6.0155729,12 9.3303147,12 12,9.3442614 12,6.0297591" style="fill:#fff;fill-opacity:1"/><path style="fill:#104e81;fill-opacity:1" id="path3324" d="M 11,6 C 11,3.2250502 8.6749086,0.9752009 6.0129773,0.9752009 3.2502906,0.9752009 1,3.2250502 1,6 1,8.7370854 3.2502906,10.975201 6.0129773,10.975201 8.7752621,10.975201 11,8.7620854 11,6"/><path style="fill:#fff;fill-opacity:1" id="path3314" d="M 10,6.0289384 C 10,8.2056007 8.2027264,10 6.0120374,10 3.8088799,10 2,8.2170271 2,6.0289384 2,3.8180432 3.8088799,2 6.0120374,2 8.2027264,2 10,3.8292835 10,6.0289384 z"/><path id="path3066-2" d="M 10,6.0289384 C 10,8.2056007 8.2027264,10 6.0120374,10 3.8088799,10 2,8.2170271 2,6.0289384 2,3.8180432 3.8088799,2 6.0120374,2 8.2027264,2 10,3.8292835 10,6.0289384 z" style="fill:#fff;fill-opacity:1"/><path style="fill:#104e81;fill-opacity:1;stroke:none" id="rect3068-4" d="M 5,4 5,8 7,8 7,7.25 5.5,7.25 5.5,6 7,6 7,5.5 5.5,5.5 5.5,4.5 7,4.5 7,4 5,4 z"/><path style="fill:#104e81;fill-opacity:1;stroke:none" id="path3074-8" d="m 2.5,4 0,1 0,2 0,1 L 3,8 3,6.5 3.5,6.5 4,8 5,8 4,6 4.75,5 4.71875,5 4,4 2.5,4 z M 3,4.5 3.5,4.5 4,5 3,6 3,4.5 z"/><path style="fill:#104e81;fill-opacity:1;stroke:none" id="path3120-3" d="m 7.5,4 0,1 0,2 0,1 L 8,8 8,6.5 8.5,6.5 9,8 10,8 9,6 9.75,5 9.71875,5 9,4 7.5,4 z M 8,4.5 8.5,4.5 9,5 8,6 8,4.5 z"/></g></g></g></svg>