<svg xmlns="http://www.w3.org/2000/svg" xmlns:svg="http://www.w3.org/2000/svg" id="Ebene_1" width="12" height="12" x="0" y="0" enable-background="new 0 0 350 353" version="1.1" viewBox="0 0 12 12" xml:space="preserve"><metadata id="metadata13"/><path id="path2997" d="M 5.9999637,12 C 2.6907414,12 0,9.309259 0,6.0000002 0,2.6907776 2.6907414,0 5.9999637,0 9.3092223,0 12,2.6907776 12,6.0000002 12.000073,9.309259 9.3092223,12 5.9999637,12 z" style="fill:#fff"/><path style="fill:#006f4d;fill-opacity:1" id="path5-0-4" d="M 5.9999702,11 C 3.2422847,11 1,8.7577156 1,5.9999999 1,3.2423143 3.2422847,0.99999949 5.9999702,0.99999949 c 2.7577157,0 5.0000308,2.24231481 5.0000308,5.00000041 C 11.000061,8.7577156 8.7576859,11 5.9999702,11 z"/><path style="fill:#fff" id="path7-9-1" d="M 4.5059198,3.9604735 C 4.5000449,3.3842413 5.0063159,3.0196296 6.0000001,3 6.9930912,2.9803821 7.8037974,3.7559367 8.5,4.5000001 L 8.5,3 C 7.6952983,2.3814411 7.1301991,2 6.0000001,2 4.6437613,2 3,2.9539177 3,4.5000001 c 0,2.9475891 4.5089022,2.0294287 4.5089022,3.5393857 0,0.4520796 -0.7674916,0.9606143 -1.5089021,0.9606143 C 4.7884267,9.0000001 3.6600364,8.4493671 3,7.5 L 3,9.0000001 C 3.6962027,9.6238699 4.8969258,9.9999999 6.0000001,9.9999999 7.9801087,9.9999999 9,8.7115733 9,7.5 9.0000301,4.4982216 4.5217212,5.5103238 4.5059198,3.9604735 z"/></svg>