<svg xmlns="http://www.w3.org/2000/svg" xmlns:svg="http://www.w3.org/2000/svg" id="svg2" width="12" height="24" version="1.1"><metadata id="metadata12"/><g id="g3046"><g id="g3007"><path id="path2994" d="M 0,0 12,0 12,12 0,12 z" style="fill:#fff"/><path style="fill:#104e81;fill-opacity:1" id="rect3272" d="M 1,1 11,1 11,11 1,11 z"/><path id="path3274" d="M 9,7.5 C 8.99586,5.4691074 9,2 9,2 L 7.5,2 c 0,0 0,3.216125 0,5 C 7.5,8 6.71875,8.5 6,8.5 5.28125,8.5 4.5,8 4.5,7 c 0,-1.9084889 0,-5 0,-5 L 3,2 C 3,2 3,7.1852509 3,7.5 3,9 4.5,10 6,10 7.5,10 9,9 9,7.5 z" style="fill:#fff"/></g><g id="g3041" transform="translate(-4,-5)"><path id="path2997" d="M 9.9999637,29 C 6.6907414,29 4,26.309259 4,23 4,19.690778 6.6907414,17 9.9999637,17 13.309222,17 16,19.690778 16,23 c 7.3e-5,3.309259 -2.690778,6 -6.0000363,6 z" style="fill:#fff"/><path style="fill:#006f4d;fill-opacity:1" id="path5-0-4" d="M 9.9999702,28 C 7.2422847,28 5,25.757716 5,23 c 0,-2.757686 2.2422847,-5.000001 4.9999702,-5.000001 2.7577158,0 5.0000308,2.242315 5.0000308,5.000001 6e-5,2.757716 -2.242315,5 -5.0000308,5 z"/><path style="fill:#fff" id="path7-9-1" d="M 8.5059198,20.960473 C 8.5000449,20.384241 9.0063159,20.01963 10,20 c 0.993091,-0.01962 1.803797,0.755937 2.5,1.5 l 0,-1.5 c -0.804702,-0.618559 -1.369801,-1 -2.5,-1 -1.3562387,0 -3,0.953918 -3,2.5 0,2.947589 4.508902,2.029429 4.508902,3.539386 C 11.508902,25.491465 10.741411,26 10,26 8.7884267,26 7.6600364,25.449367 7,24.5 L 7,26 c 0.6962027,0.62387 1.8969258,1 3,1 1.980109,0 3,-1.288427 3,-2.5 3e-5,-3.001778 -4.4782788,-1.989676 -4.4940802,-3.539527 z"/></g></g></svg>