<svg xmlns="http://www.w3.org/2000/svg" xmlns:svg="http://www.w3.org/2000/svg" id="svg4764" width="12" height="12" version="1.1"><metadata id="metadata4769"/><g id="layer1" transform="translate(0,-1040.3622)"><path style="fill:#667;fill-opacity:1;stroke:#fff;stroke-width:2;stroke-linecap:round;stroke-linejoin:round;stroke-miterlimit:4;stroke-dasharray:none" id="path4784" d="M 6,1 C 4,1 3,3 3,4.5 L 3,7.75 3.25,8 9.75,8 10,7.75 10,4.5 C 10,3 9,1 7,1 z M 5.75,2 6,2.25 6,4.75 5.75,5 4.25,5 4,4.75 C 4,3.75 4.25,2 5.75,2 z m 1.5,0 C 8.75,2 9,3.75 9,4.75 L 8.75,5 7.25,5 7,4.75 7,2.25 z M 4.5,8.5 3,9.25 3,10 4.75,10 5.5,9.25 5.5,8.5 z m 3,0 0,0.75 L 8.25,10 10,10 10,9.25 8.5,8.5 z" transform="translate(0,1040.3622)"/><path style="fill:#667;fill-opacity:1;stroke:none" id="path3248" d="M 6,1 C 4,1 3,3 3,4.5 L 3,7.75 3.25,8 9.75,8 10,7.75 10,4.5 C 10,3 9,1 7,1 z M 5.75,2 6,2.25 6,4.75 5.75,5 4.25,5 4,4.75 C 4,3.75 4.25,2 5.75,2 z M 7,2.25 7.25,2 C 8.75,2 9,3.75 9,4.75 L 8.75,5 7.25,5 7,4.75 z" transform="translate(0,1040.3622)"/><path style="fill:#667;fill-opacity:1;stroke:none" id="path3266" d="m 4.5,1048.8622 -1.5,0.75 0,0.75 1.75,0 0.75,-0.75 0,-0.75 z"/><path id="path3268" d="m 8.5,1048.8622 -1,0 0,0.75 0.75,0.75 1.75,0 0,-0.75 z" style="fill:#667;fill-opacity:1;stroke:none"/><rect style="color:#000;fill:#a3a3a3;fill-opacity:0;fill-rule:nonzero;stroke:none;stroke-width:1;marker:none;visibility:visible;display:inline;overflow:visible;enable-background:accumulate" id="rect3122" width="12" height="12" x="0" y="0" transform="translate(0,1040.3622)"/><path style="color:#000;fill:#fff;fill-opacity:1;fill-rule:nonzero;stroke:none;stroke-width:1;marker:none;visibility:visible;display:inline;overflow:visible;enable-background:accumulate" id="path3096" d="M 5,6.5 C 5,6.7761424 4.7761424,7 4.5,7 4.2238576,7 4,6.7761424 4,6.5 4,6.2238576 4.2238576,6 4.5,6 4.7761424,6 5,6.2238576 5,6.5 z" transform="matrix(1.25,0,0,1.25,-1,1038.6122)"/><path id="path3098" d="M 5,6.5 C 5,6.7761424 4.7761424,7 4.5,7 4.2238576,7 4,6.7761424 4,6.5 4,6.2238576 4.2238576,6 4.5,6 4.7761424,6 5,6.2238576 5,6.5 z" transform="matrix(1.25,0,0,1.25,2.75,1038.6122)" style="color:#000;fill:#fff;fill-opacity:1;fill-rule:nonzero;stroke:none;stroke-width:1;marker:none;visibility:visible;display:inline;overflow:visible;enable-background:accumulate"/></g></svg>