<svg xmlns="http://www.w3.org/2000/svg" xmlns:svg="http://www.w3.org/2000/svg" id="svg4619" width="18" height="18" version="1.1"><metadata id="metadata4624"/><g id="layer1" transform="translate(0,-1034.3622)"><path style="fill:#667;fill-opacity:1;stroke:#fff;stroke-width:4;stroke-miterlimit:4;stroke-dasharray:none;stroke-linejoin:round;stroke-linecap:round" id="path3494" d="M 9.5 2 C 7.0147186 2 5 3.9587535 5 6.375 C 4.9998504 8.0880318 5 9.86775 5 11.34375 C 5 11.70385 5.3039615 12 5.6875 12 L 13.3125 12 C 13.696039 12 14 11.70385 14 11.34375 L 14 6.375 C 14 3.9587535 11.985281 2 9.5 2 z M 8.90625 3.5625 C 8.936748 3.55626 8.969173 3.56781 9 3.5625 L 9 8 L 6.5 8 L 6.5 6.5 C 6.5 5.0502442 7.5392006 3.8422371 8.90625 3.5625 z M 10 3.5625 C 11.412646 3.8057143 12.5 5.0179013 12.5 6.5 L 12.5 8 L 10 8 L 10 3.5625 z M 7 13 L 5 14 L 5 15 L 7.5 15 L 8.5 14 L 8.5 13 L 7 13 z M 10.5 13 L 10.5 14 L 11.5 15 L 14 15 L 14 14 L 12 13 L 10.5 13 z" transform="translate(0,1034.3622)"/><path style="fill:#667;fill-opacity:1;stroke:none" id="rect3109-8" d="M 9.5,2 C 7.0147186,2 5,3.9587535 5,6.375 4.9998504,8.0880318 5,9.86775 5,11.34375 5,11.70385 5.3039615,12 5.6875,12 l 7.625,0 C 13.696039,12 14,11.70385 14,11.34375 L 14,6.375 C 14,3.9587535 11.985281,2 9.5,2 z M 8.90625,3.5625 c 0.030498,-0.00624 0.062923,0.00531 0.09375,0 L 9,8 6.5,8 6.5,6.5 C 6.5,5.0502442 7.5392006,3.8422371 8.90625,3.5625 z M 10,3.5625 C 11.412646,3.8057143 12.5,5.0179013 12.5,6.5 L 12.5,8 10,8 z" transform="translate(0,1034.3622)"/><path style="fill:#667;fill-opacity:1;stroke:none" id="path3787-5" d="m 8.5,1047.3622 -1.5,0 -2,1 0,1 2.5,0 1,-1 z"/><path id="path3122" d="m 10.5,1047.3622 1.5,0 2,1 0,1 -2.5,0 -1,-1 z" style="fill:#667;fill-opacity:1;stroke:none"/><rect style="color:#000;fill:#a3a3a3;fill-opacity:0;fill-rule:nonzero;stroke:none;stroke-width:1;marker:none;visibility:visible;display:inline;overflow:visible;enable-background:accumulate" id="rect4006" width="18" height="18" x="0" y="0" transform="translate(0,1034.3622)"/><path style="color:#000;fill:#fff;fill-opacity:1;fill-rule:nonzero;stroke:none;stroke-width:1;marker:none;visibility:visible;display:inline;overflow:visible;enable-background:accumulate" id="path3490" d="M 8,10.5 C 8,10.776142 7.7761424,11 7.5,11 7.2238576,11 7,10.776142 7,10.5 7,10.223858 7.2238576,10 7.5,10 7.7761424,10 8,10.223858 8,10.5 z" transform="matrix(1.5,0,0,1.5,-4,1028.8622)"/><path id="path3492" d="M 8,10.5 C 8,10.776142 7.7761424,11 7.5,11 7.2238576,11 7,10.776142 7,10.5 7,10.223858 7.2238576,10 7.5,10 7.7761424,10 8,10.223858 8,10.5 z" transform="matrix(1.5,0,0,1.5,0.5,1028.8622)" style="color:#000;fill:#fff;fill-opacity:1;fill-rule:nonzero;stroke:none;stroke-width:1;marker:none;visibility:visible;display:inline;overflow:visible;enable-background:accumulate"/></g></svg>