<svg xmlns="http://www.w3.org/2000/svg" xmlns:svg="http://www.w3.org/2000/svg" id="svg2484" width="12" height="12" version="1.0"><metadata id="metadata2489"/><g id="layer1" transform="translate(1125.7177,-1006.5985)"><g id="g3812"><path style="fill:#fff;fill-opacity:1;stroke:none" id="path3901" d="m -1123.3177,1006.5984 7.2,0 c 1.3296,0 2.4,1.0704 2.4,2.4 l 0,7.2 c 0,1.3296 -1.0704,2.4 -2.4,2.4 l -7.2,0 c -1.3296,0 -2.4,-1.0704 -2.4,-2.4 l 0,-7.2 c 0,-1.3296 1.0704,-2.4 2.4,-2.4 z"/><path id="rect4162" d="m -1122.7177,1007.5984 6,0 c 1.108,0 2,0.892 2,2 l 0,6 c 0,1.108 -0.892,2 -2,2 l -6,0 c -1.108,0 -2,-0.892 -2,-2 l 0,-6 c 0,-1.108 0.892,-2 2,-2 z" style="fill:#0079ac;fill-opacity:1;stroke:none"/><path id="path4169" d="m -1122.7188,1008.5938 c -0.572,0 -1,0.4279 -1,1 l 0,6 c 0,0.5717 0.4283,1 1,1 l 6,0 c 0.5721,0 1,-0.4281 1,-1 l 0,-6 c 0,-0.5721 -0.4279,-1 -1,-1 l -6,0 z" transform="translate(0.0011,0.0047)" style="fill:#fff;fill-opacity:1;stroke:none"/><path id="rect3046" d="M 4.75 3 C 4.3345 3 4 3.3345 4 3.75 L 4 7.25 C 4 7.6655 4.3345 8 4.75 8 L 5 8 L 3.5 9.5 L 4.5 9.5 L 5.5 8.5 L 6.5 8.5 L 7.5 9.5 L 8.5 9.5 L 7 8 L 7.25 8 C 7.6655 8 8 7.6655 8 7.25 L 8 3.75 C 8 3.3345 7.6655 3 7.25 3 L 4.75 3 z M 4.75 4 L 7.25 4 C 7.3885 4 7.5 4.1115 7.5 4.25 L 7.5 4.75 C 7.5 4.8885 7.3885 5 7.25 5 L 4.75 5 C 4.6115 5 4.5 4.8885 4.5 4.75 L 4.5 4.25 C 4.5 4.1115 4.6115 4 4.75 4 z M 4.5 6 L 5 6 L 5 6.5 L 4.5 6.5 L 4.5 6 z M 7 6 L 7.5 6 L 7.5 6.5 L 7 6.5 L 7 6 z" transform="translate(-1125.7177,1006.5985)" style="fill:#0079ac;fill-opacity:1;stroke:none;display:inline"/></g></g></svg>