<svg xmlns="http://www.w3.org/2000/svg" xmlns:svg="http://www.w3.org/2000/svg" id="svg2484" width="18" height="18" version="1.0"><metadata id="metadata2489"/><g id="layer1" transform="translate(1125.7177,-1000.5985)" style="display:inline"><g id="g3018"><g id="g3038" transform="matrix(0.0581986,0,0,0.0581986,-1116.1461,991.08678)" style="fill:#fff;stroke:none"><g id="g3040" style="fill:#fff;stroke:none"><g id="g3042" transform="translate(346.23962,22.336208)" style="fill:#fff;stroke:none"><g style="fill:#fff;stroke:none" id="g3044" transform="translate(-597.84164,-361.66719)"><g style="fill:#fff;stroke:none" id="g3046"><g style="fill:#fff;stroke:none" id="g3048" transform="matrix(1.0136364,0,0,1.0136364,-6.3061891,-6.3640296)"><rect style="fill:#fff;fill-opacity:1;fill-rule:nonzero;stroke:none" id="rect3050" width="283.284" height="283.284" x="103.116" y="513.2" ry="41.279"/><path style="font-size:medium;font-style:normal;font-variant:normal;font-weight:400;font-stretch:normal;text-indent:0;text-align:start;text-decoration:none;line-height:normal;letter-spacing:normal;word-spacing:normal;text-transform:none;direction:ltr;block-progression:tb;writing-mode:lr-tb;text-anchor:start;baseline-shift:baseline;color:#000;fill:#fff;fill-opacity:1;fill-rule:nonzero;stroke:none;stroke-width:21.84507942;marker:none;visibility:visible;display:inline;overflow:visible;enable-background:accumulate;font-family:Sans;-inkscape-font-specification:Sans" id="path3052" d="m 144.40625,502.28125 c -28.73045,0 -52.21875,23.45705 -52.21875,52.1875 l 0,200.75 c 0,28.73045 23.4883,52.1875 52.21875,52.1875 l 200.71875,0 c 28.73046,0 52.1875,-23.45705 52.1875,-52.1875 l 0,-200.75 c 0,-28.73045 -23.45705,-52.1875 -52.1875,-52.1875 z"/></g></g></g></g></g></g><g style="stroke:#0062ac;stroke-opacity:1" id="g2757" transform="matrix(0.04516129,0,0,0.04516084,-1116.2746,995.23397)"><g style="stroke:#0062ac;stroke-opacity:1" id="g2656"><g style="fill:#fff;stroke:#0062ac;stroke-opacity:1" id="g2840" transform="translate(346.23962,22.336208)"><g id="g2639" transform="translate(-597.84164,-361.66719)" style="fill:#fff;stroke:#0062ac;stroke-opacity:1"><g id="g2628" style="fill:#fff;stroke:#0062ac;stroke-opacity:1"><g id="g6673" transform="matrix(1.0136364,0,0,1.0136364,-6.3061891,-6.3640296)" style="fill:#fff;stroke:#0062ac;stroke-opacity:1"><rect id="rect5674" width="283.284" height="283.284" x="103.116" y="513.2" ry="41.279" style="fill:#fff;fill-opacity:1;fill-rule:nonzero;stroke:#0062ac;stroke-width:22.54545593;stroke-linejoin:miter;stroke-miterlimit:4;stroke-opacity:1;stroke-dasharray:none;stroke-dashoffset:0"/><path id="rect2993" d="m 144.40625,502.28125 c -28.73045,0 -52.21875,23.45705 -52.21875,52.1875 l 0,200.75 c 0,28.73045 23.4883,52.1875 52.21875,52.1875 l 200.71875,0 c 28.73046,0 52.1875,-23.45705 52.1875,-52.1875 l 0,-200.75 c 0,-28.73045 -23.45705,-52.1875 -52.1875,-52.1875 l -200.71875,0 z m 0,21.84375 200.71875,0 c 17.00615,0 30.34375,13.33762 30.34375,30.34375 l 0,200.75 c 0,17.00613 -13.33761,30.34375 -30.34375,30.34375 l -200.71875,0 c -17.00613,0 -30.375,-13.33762 -30.375,-30.34375 l 0,-200.75 c 0,-17.00613 13.36887,-30.34375 30.375,-30.34375 z" style="font-size:medium;font-style:normal;font-variant:normal;font-weight:400;font-stretch:normal;text-indent:0;text-align:start;text-decoration:none;line-height:normal;letter-spacing:normal;word-spacing:normal;text-transform:none;direction:ltr;block-progression:tb;writing-mode:lr-tb;text-anchor:start;baseline-shift:baseline;color:#000;fill:#0079ac;fill-opacity:1;fill-rule:nonzero;stroke:none;stroke-width:21.84507942;marker:none;visibility:visible;display:inline;overflow:visible;enable-background:accumulate;font-family:Sans;-inkscape-font-specification:Sans"/></g></g></g></g></g></g><path id="rect3829" d="m -1118.7177,1004.5985 c -0.554,0 -1,0.4205 -1,0.9375 l 0,5.125 c 0,0.517 0.446,0.9375 1,0.9375 l -1.5,3 1.5,0 1,-2 2,0 1,2 1.5,0 -1.5,-3 c 0.554,0 1,-0.4205 1,-0.9375 l 0,-5.125 c 0,-0.517 -0.446,-0.9375 -1,-0.9375 l -4,0 z m 0.5,1 3,0 c 0.277,0 0.5,0.223 0.5,0.5 l 0,1 c 0,0.277 -0.223,0.5 -0.5,0.5 l -3,0 c -0.277,0 -0.5,-0.223 -0.5,-0.5 l 0,-1 c 0,-0.277 0.223,-0.5 0.5,-0.5 z m -0.5,3 1,0 0,1 -1,0 0,-1 z m 3,0 1,0 0,1 -1,0 0,-1 z" style="fill:#0079ac;fill-opacity:1;stroke:none"/></g></g></svg>