<svg xmlns="http://www.w3.org/2000/svg" xmlns:svg="http://www.w3.org/2000/svg" id="svg2" width="12" height="12" version="1.1"><metadata id="metadata12"/><g id="g3007"><path style="fill:#fff" id="path2994" d="M 0,0 12,0 12,12 0,12 z"/><path id="rect3272" d="M 1,1 11,1 11,11 1,11 z" style="fill:#104e81;fill-opacity:1"/><path style="fill:#fff" id="path3274" d="M 9,7.5 C 8.99586,5.4691074 9,2 9,2 L 7.5,2 c 0,0 0,3.216125 0,5 C 7.5,8 6.71875,8.5 6,8.5 5.28125,8.5 4.5,8 4.5,7 c 0,-1.9084889 0,-5 0,-5 L 3,2 C 3,2 3,7.1852509 3,7.5 3,9 4.5,10 6,10 7.5,10 9,9 9,7.5 z"/></g></svg>