<svg xmlns="http://www.w3.org/2000/svg" xmlns:svg="http://www.w3.org/2000/svg" id="svg2" width="18" height="18" version="1.1"><metadata id="metadata12"/><g id="layer1" style="display:none"><g id="g2989" transform="matrix(0.028,0,0,0.028,2,15.664)"><rect style="fill:#039" id="rect4" width="500" height="500" x="0" x1="0" y="-488" y1="0"/><path style="fill:#fff" id="path6" d="m 269.02771,-25.96444 c 32.46324,-3.16863 62.79169,-13.49668 86.87553,-29.58458 12.10292,-8.08471 29.1727,-24.82511 36.5937,-35.8876 10.84524,-16.167 18.72123,-35.59139 22.93471,-56.56338 1.63209,-8.12347 1.83149,-22.39624 2.16542,-155 l 0.36779,-146.05263 -100.07012,0 0,133.72569 c 0,87.90894 -0.38553,137.18318 -1.12526,143.81707 -1.3252,11.88447 -5.23401,26.08963 -9.20286,33.44449 -4.98018,9.229 -14.1686,18.01085 -23.75531,22.7042 -26.37508,12.9124 -64.96875,8.26323 -83.26211,-10.03013 -9.31657,-9.31656 -15.71698,-24.31854 -18.40303,-43.13501 -0.65653,-4.59916 -1.05968,-58.69853 -1.07269,-143.94736 l -0.0208,-136.57895 -98.947367,0 0,138.30952 c 0,138.76237 0.266004,150.47615 3.815189,168.00627 8.765571,43.29486 35.775788,77.75351 77.126788,98.39553 30.30845,15.1297 69.5448,21.93323 105.98047,18.37687 z"/></g></g><g id="layer2" style="display:inline;opacity:1"><g id="g3008"><path style="fill:#fff" id="rect3276" d="M 0,0 18,0 18,18 0,18 z"/><path style="fill:#104e81;fill-opacity:1" id="rect3272" d="m 2,2.0000057 14,0 0,14.0000003 -14,0 z"/><path style="fill:#fff" id="path3274" d="M 13.9897,10.500005 C 13.983855,7.6538238 14,3.01563 14,3.01563 L 11,3 c 0,0 0,5 0,7.5 -0.0065,1.139076 -1.0103,2 -2.0103,2 -1,0 -2.0064941,-0.860924 -2,-2 -0.00734,-2.6746294 0,-7.499995 0,-7.499995 L 4,3 c 0,0 -0.010212,7.058902 -0.0103,7.500005 0,2.5 2.5,4.5 5,4.5 2.5,0 5,-2 5,-4.5 z"/></g></g></svg>