<svg xmlns="http://www.w3.org/2000/svg" xmlns:svg="http://www.w3.org/2000/svg" id="svg3115" width="12" height="12" version="1.1"><metadata id="metadata3125"/><g id="g3007"><circle id="circle2994" cx="250" cy="250" r="249" d="M 499,250 C 499,387.5189 387.5189,499 250,499 112.4811,499 1,387.5189 1,250 1,112.4811 112.4811,1 250,1 387.5189,1 499,112.4811 499,250 z" transform="matrix(0.02409639,0,0,0.02409639,-0.02409639,-0.02409861)" style="fill:#fff"/><circle style="fill:#0079ac;fill-opacity:1" id="circle3117-7" cx="250" cy="250" r="249" d="M 499,250 C 499,387.5189 387.5189,499 250,499 112.4811,499 1,387.5189 1,250 1,112.4811 112.4811,1 250,1 387.5189,1 499,112.4811 499,250 z" transform="matrix(0.02012556,0,0,0.02012556,0.96861086,0.97987456)"/><path id="path3119-9" d="m 3,3.5 0,3 C 3.00216,8.1670345 4.3416481,9.4805992 6.0086834,9.4805992 7.6757186,9.4805992 8.9978328,8.1670345 9,6.5 L 9,3.5 9,3 7,3 7,6.5 C 7,7 6.5,7.5 6,7.5 5.5,7.5 5,7 5,6.5 L 5,3 3,3 z" style="font-size:medium;font-style:normal;font-variant:normal;font-weight:400;font-stretch:normal;text-indent:0;text-align:start;text-decoration:none;line-height:normal;letter-spacing:normal;word-spacing:normal;text-transform:none;direction:ltr;block-progression:tb;writing-mode:lr-tb;text-anchor:start;baseline-shift:baseline;color:#000;fill:#fff;fill-opacity:1;stroke:none;stroke-width:2.68007326;marker:none;visibility:visible;display:inline;overflow:visible;enable-background:accumulate;font-family:Sans;-inkscape-font-specification:Sans"/></g></svg>