<svg xmlns="http://www.w3.org/2000/svg" xmlns:svg="http://www.w3.org/2000/svg" id="svg3115" width="18" height="18" version="1.1"><metadata id="metadata3125"/><g id="layer1" style="display:none"><circle style="fill:#025ca0" id="circle2988" cx="250" cy="250" r="249" transform="matrix(0.02811245,0,0,0.02811245,1.9606244,1.9718876)"/><path style="fill:none;stroke:#fff;stroke-width:2.68007326" id="path2990" d="m 6.0898853,4.8996509 v 5.3054621 a 2.8988548,2.8988548 0 0 0 5.7977047,0 V 4.8996509"/></g><g id="layer2"><g id="g3008"><rect id="rect3763" width="18" height="18" x="0" y="0" style="fill:#fff;fill-opacity:0;stroke:none"/><circle id="circle3048" cx="250" cy="250" r="249" transform="matrix(0.03413655,0,0,0.03413655,-0.03413655,-0.03413655)" style="fill:#fff"/><circle style="fill:#0079ac;fill-opacity:1" id="circle3117" cx="250" cy="250" r="249" transform="matrix(0.02610442,0,0,0.02610442,1.9626325,1.9738957)"/><path id="path3119" d="m 5,5 0,4 c 0.0028,2.162274 1.3377251,4 3.5,4 2.162275,0 3.497189,-1.837726 3.5,-4 l 0,-4 -2,0 0,4.5 C 10,10 9.5,11 8.5,11 7.5,11 7,10 7,9.5 L 7,5 z" style="font-size:medium;font-style:normal;font-variant:normal;font-weight:400;font-stretch:normal;text-indent:0;text-align:start;text-decoration:none;line-height:normal;letter-spacing:normal;word-spacing:normal;text-transform:none;direction:ltr;block-progression:tb;writing-mode:lr-tb;text-anchor:start;baseline-shift:baseline;color:#000;fill:#fff;fill-opacity:1;stroke:none;stroke-width:2.68007326;marker:none;visibility:visible;display:inline;overflow:visible;enable-background:accumulate;font-family:Sans;-inkscape-font-specification:Sans"/></g></g></svg>