<svg xmlns="http://www.w3.org/2000/svg" xmlns:svg="http://www.w3.org/2000/svg" id="svg4764" width="12" height="12" version="1.1"><metadata id="metadata4769"/><g id="layer1" transform="translate(0,-1040.3622)"><g style="display:inline" id="airfield-12" transform="translate(-126,-250)"><g id="g12542" transform="translate(-1,-1)"><path style="opacity:.3;color:#000;fill:#fff;fill-opacity:1;fill-rule:nonzero;stroke:#fff;stroke-width:2;stroke-linecap:butt;stroke-linejoin:round;stroke-miterlimit:4;stroke-opacity:1;stroke-dasharray:none;stroke-dashoffset:0;marker:none;visibility:visible;display:inline;overflow:visible;enable-background:accumulate" id="path6224" d="m 131.25,1292.8622 c -0.1385,0 -0.25,0.1115 -0.25,0.25 0,0.1385 0.1115,0.25 0.25,0.25 l 2,0 -0.25,1 0,1 -4,1 0,1 4,0 0,2 -1,0.5 0,0.5 3,0 0,-0.5 -1,-0.5 0,-2 4,0 0,-1 -4,-1 0,-1 -0.25,-1 2,0 c 0.1385,0 0.25,-0.1115 0.25,-0.25 0,-0.1385 -0.1115,-0.25 -0.25,-0.25 z"/><path id="path6200" d="m 131.25,1292.8622 c -0.1385,0 -0.25,0.1115 -0.25,0.25 0,0.1385 0.1115,0.25 0.25,0.25 l 2,0 -0.25,1 0,1 -4,1 0,1 4,0 0,2 -1,0.5 0,0.5 3,0 0,-0.5 -1,-0.5 0,-2 4,0 0,-1 -4,-1 0,-1 -0.25,-1 2,0 c 0.1385,0 0.25,-0.1115 0.25,-0.25 0,-0.1385 -0.1115,-0.25 -0.25,-0.25 z" style="fill:#444;fill-opacity:1;stroke:none;display:inline"/></g><rect style="opacity:.5;color:#000;fill:none;stroke:none;stroke-width:2;marker:none;visibility:visible;display:inline;overflow:visible;enable-background:accumulate" id="rect22192-14-7-4" width="12" height="12" x="126" y="1290.362"/></g></g></svg>