<svg xmlns="http://www.w3.org/2000/svg" xmlns:svg="http://www.w3.org/2000/svg" id="svg4764" width="12" height="12" version="1.1"><metadata id="metadata4769"/><g id="layer1" transform="translate(0,-1040.3622)"><g style="display:inline" id="alcohol-shop-12" transform="translate(-594,-33.999983)"><path style="opacity:.3;color:#000;fill:#fff;fill-opacity:1;fill-rule:nonzero;stroke:#fff;stroke-width:2;stroke-linecap:round;stroke-linejoin:round;stroke-miterlimit:4;stroke-opacity:1;stroke-dasharray:none;stroke-dashoffset:0;marker:none;visibility:visible;display:inline;overflow:visible;enable-background:accumulate" id="path8755" d="m 718,25 0,2 -2,2 0,5.40625 0.59375,0.59375 4.03125,0 0.375,-0.5 0,-5.5 -2,-2 0,-2 -1,0 z m 4,4 0,2 1,1 0,2 -1,1 3,0 -1,-1 0,-2 1,-1 0,-2 -3,0 z" transform="translate(-120,1050.3622)"/><rect style="opacity:.5;color:#000;fill:none;stroke:none;stroke-width:2;marker:none;visibility:visible;display:inline;overflow:visible;enable-background:accumulate" id="rect22286-3-7" width="12" height="12" x="594" y="1074.362"/><path id="path5715" d="m 598,1075.3622 0,2 -2,2 0,5.4063 0.59375,0.5937 4.03125,0 0.375,-0.5 0,-5.5 -2,-2 0,-2 -1,0 z m 4,4 0,2 1,1 0,2 -1,1 3,0 -1,-1 0,-2 1,-1 0,-2 -3,0 z" style="color:#000;fill:#444;fill-opacity:1;fill-rule:nonzero;stroke:none;stroke-width:.99999988;marker:none;visibility:visible;display:inline;overflow:visible;enable-background:accumulate"/></g></g></svg>