<svg xmlns="http://www.w3.org/2000/svg" xmlns:svg="http://www.w3.org/2000/svg" id="svg4764" width="12" height="12" version="1.1"><metadata id="metadata4769"/><g id="layer1" transform="translate(0,-1040.3622)" style="display:inline"><g id="g6350"><path id="path6346" d="m 5.9999999,1043.8622 -0.9999998,0.5 0.9999998,4 1,0 1.0000003,-4 -0.9999999,-0.5 z m -1.9999999,1 -0.5,0.5 -1.5,2.5 0,0.5 0.5,0.5 0.5,0 1,-0.5 1,0 z m 5.0000002,0 -1.0000004,3.5 1.0000004,0 0.9999998,0.5 0.5,0 0.5,-0.5 0,-1 -1.4999999,-2 z" style="color:#000;fill:none;fill-opacity:1;fill-rule:nonzero;stroke:#fff;stroke-width:2;stroke-linecap:butt;stroke-linejoin:miter;stroke-miterlimit:4;stroke-opacity:1;stroke-dasharray:none;stroke-dashoffset:0;marker:none;visibility:visible;display:inline;overflow:visible;enable-background:accumulate;opacity:.3"/><path style="color:#000;fill:#444;fill-opacity:1;fill-rule:nonzero;stroke:none;stroke-width:0;marker:none;visibility:visible;display:inline;overflow:visible;enable-background:accumulate" id="path5836" d="m 6,1043.8622 -1,0.5 1,4 1,0 1,-4 -1,-0.5 z m -2,1 -0.5,0.5 -1.5,2.5 0,0.5 0.5,0.5 0.5,0 1,-0.5 1,0 z m 5,0 -1,3.5 1,0 1,0.5 0.5,0 0.5,-0.5 0,-1 -1.5,-2 z"/><rect id="rect6348" width="12" height="12" x="0" y="0" transform="translate(0,1040.3622)" style="opacity:1;color:#000;fill:none;stroke:none;stroke-width:2;stroke-linecap:butt;stroke-linejoin:round;stroke-miterlimit:4;stroke-opacity:1;stroke-dasharray:none;stroke-dashoffset:0;marker:none;visibility:visible;display:inline;overflow:visible;enable-background:accumulate"/></g></g></svg>