<svg xmlns="http://www.w3.org/2000/svg" xmlns:svg="http://www.w3.org/2000/svg" id="svg4764" width="12" height="12" version="1.1"><metadata id="metadata4769"/><g id="layer1" transform="translate(0,-1040.3622)"><g style="display:inline" id="bar-12" transform="translate(-360,-105.99998)"><g id="g21566" transform="translate(-1,-1)"><path style="opacity:.3;color:#000;fill:none;stroke:#fff;stroke-width:2;stroke-linecap:round;stroke-linejoin:round;stroke-miterlimit:4;stroke-opacity:1;stroke-dasharray:none;stroke-dashoffset:0;marker:none;visibility:visible;display:inline;overflow:visible;enable-background:accumulate" id="path15228" d="m 363.5,1149.3622 c -0.28125,0 -0.5,3e-4 -0.5,0.1406 0,0.141 0.19283,0.3082 0.28125,0.4219 l 3.71875,4.4375 0,2.5 c -1,0.5 -2.5,1 -2.5,1.5 l 6,0 c 0,-0.5 -1.5,-1 -2.5,-1.5 l 0,-2.5 3.71875,-4.4375 c 0.0884,-0.1137 0.28125,-0.2809 0.28125,-0.4219 0,-0.1403 -0.21875,-0.1406 -0.5,-0.1406 z"/><path id="path15601-4-2" d="m 363.5,1149.3622 c -0.28125,0 -0.5,3e-4 -0.5,0.1406 0,0.141 0.19283,0.3082 0.28125,0.4219 l 3.71875,4.4375 0,2.5 c -1,0.5 -2.5,1 -2.5,1.5 l 6,0 c 0,-0.5 -1.5,-1 -2.5,-1.5 l 0,-2.5 3.71875,-4.4375 c 0.0884,-0.1137 0.28125,-0.2809 0.28125,-0.4219 0,-0.1403 -0.21875,-0.1406 -0.5,-0.1406 z" style="color:#000;fill:#444;fill-opacity:1;stroke:none;stroke-width:2;marker:none;visibility:visible;display:inline;overflow:visible;enable-background:accumulate"/></g><rect id="rect22419" width="12" height="12" x="360" y="1146.362" style="opacity:.5;color:#000;fill:none;stroke:none;stroke-width:2;marker:none;visibility:visible;display:inline;overflow:visible;enable-background:accumulate"/></g></g></svg>