<svg xmlns="http://www.w3.org/2000/svg" xmlns:svg="http://www.w3.org/2000/svg" id="svg4764" width="12" height="12" x="0" y="0" enable-background="new -402.5 403.5 12 12" version="1.1" viewBox="-402.5 403.5 12 12" xml:space="preserve"><metadata id="metadata25"/><g id="g3188" transform="translate(0,-1)" style="fill:#fff;stroke:none;stroke-opacity:1;stroke-width:2;stroke-miterlimit:4;stroke-dasharray:none;stroke-linejoin:round;stroke-linecap:round;fill-opacity:1;opacity:.3"><path style="font-size:medium;font-style:normal;font-variant:normal;font-weight:400;font-stretch:normal;text-indent:0;text-align:start;text-decoration:none;line-height:normal;letter-spacing:normal;word-spacing:normal;text-transform:none;direction:ltr;block-progression:tb;writing-mode:lr-tb;text-anchor:start;baseline-shift:baseline;color:#000;fill:#fff;fill-opacity:1;stroke:none;stroke-width:2;marker:none;visibility:visible;display:inline;overflow:visible;enable-background:accumulate;font-family:Sans;-inkscape-font-specification:Sans" id="path3192" d="m -399.59375,405.5 c -0.49158,0.0463 -0.90838,0.50624 -0.90625,1 -0.52358,5e-5 -0.99995,0.47642 -1,1 l 0,6 c 5e-5,0.52358 0.47642,0.99995 1,1 l 9,0 c 0.52358,-5e-5 0.99995,-0.47642 1,-1 l 0,-6 c -5e-5,-0.52358 -0.47642,-0.99995 -1,-1 l -1,0 c -5e-5,-0.52358 -0.47642,-0.99995 -1,-1 l -3,0 c -0.28347,10e-4 -0.56397,0.12986 -0.75,0.34375 -0.18603,-0.21389 -0.46653,-0.34245 -0.75,-0.34375 l -1.5,0 c -0.0312,-10e-4 -0.0625,-10e-4 -0.0937,0 z"/><polygon id="polygon3190" points="-396.5 410.985 -396 411.5 -395 411.485 -394.5 410.985 -394.5 410.015 -395 409.515 -396 409.5 -396.5 410.015" style="fill:#fff;stroke:none;stroke-opacity:1;stroke-width:2;stroke-miterlimit:4;stroke-dasharray:none;stroke-linejoin:round;stroke-linecap:round;fill-opacity:1"/></g><g id="g17" transform="translate(0,-1)"><polygon style="fill:#454545" id="polygon19" points="-396.5 410.985 -396 411.5 -395 411.485 -394.5 410.985 -394.5 410.015 -395 409.515 -396 409.5 -396.5 410.015"/><path style="fill:#454545" id="path21" d="m -393.5,407.5 c 0,-0.66667 0,-0.33333 0,-1 l -3,0 c 0,0.66667 0,0.33333 0,1 l -1.5,0 c 0,-0.33333 0,-0.66667 0,-1 l -1.5,0 c 0,0.33333 0,0.66667 0,1 l -1,0 0,6 9,0 0,-6 z m 0,4 -1,1 -2,0 -1,-1 0,-2 1,-1 2,0 1,1 z"/></g></svg>