<svg xmlns="http://www.w3.org/2000/svg" xmlns:svg="http://www.w3.org/2000/svg" id="svg3070" width="12" height="12" version="1.1"><metadata id="metadata3082"/><path style="fill:#444;fill-opacity:1;stroke:#fff;stroke-linejoin:round;stroke-linecap:round;stroke-width:2;stroke-miterlimit:4;stroke-dasharray:none;opacity:.3" id="path4996" d="M 8 2 L 7.5 3.5 L 7 5 L 9 6 L 10 6 L 11 5 L 11 4 L 10 4 L 9 3 L 9 2 L 8 2 z M 4 3 L 3 4 L 3 6 L 3 7 L 2 10 L 3 10 L 3.71875 8.5625 L 4 8 L 4 10 L 5 10 L 5 8 L 6.5 8 L 6 10 L 7 10 L 7.5 8.5 L 8 8.5 L 8 10 L 9 10 L 9 8 L 9 7 L 6 5 L 4 5 L 4 4 L 5 3 L 4 3 z"/><path id="path3074" d="M 8 2 L 7.5 3.5 L 7 5 L 9 6 L 10 6 L 11 5 L 11 4 L 10 4 L 9 3 L 9 2 L 8 2 z M 4 3 L 3 4 L 3 6 L 3 7 L 2 10 L 3 10 L 3.71875 8.5625 L 4 8 L 4 10 L 5 10 L 5 8 L 6.5 8 L 6 10 L 7 10 L 7.5 8.5 L 8 8.5 L 8 10 L 9 10 L 9 8 L 9 7 L 6 5 L 4 5 L 4 4 L 5 3 L 4 3 z" style="fill:#444;fill-opacity:1"/></svg>