<svg xmlns="http://www.w3.org/2000/svg" xmlns:svg="http://www.w3.org/2000/svg" id="svg4764" width="12" height="12" version="1.1"><metadata id="metadata4769"/><g id="layer1" transform="translate(0,-1040.3622)"><path id="path9963" d="M 3 1 L 3 4 L 4 4 L 4 2 L 9 2 L 9 9 L 4 9 L 4 7 L 3 7 L 3 10 L 10 10 L 10 1 L 3 1 z M 5 3 L 5 5 L 1 5 L 1 6 L 5 6 L 5 8 L 5.5 8 L 8.5 5.5 L 5.5 3 L 5 3 z" transform="translate(0,1040.3622)" style="fill:#444;stroke:#fff;stroke-width:2;stroke-miterlimit:4;stroke-dasharray:none;stroke-linejoin:round;stroke-linecap:round;opacity:.3"/><path style="fill:#444;stroke:none" id="rect3955" d="M 3 1 L 3 4 L 4 4 L 4 2 L 9 2 L 9 9 L 4 9 L 4 7 L 3 7 L 3 10 L 10 10 L 10 1 L 3 1 z M 5 3 L 5 5 L 1 5 L 1 6 L 5 6 L 5 8 L 5.5 8 L 8.5 5.5 L 5.5 3 L 5 3 z" transform="translate(0,1040.3622)"/></g></svg>