<svg xmlns="http://www.w3.org/2000/svg" xmlns:svg="http://www.w3.org/2000/svg" id="svg4764" width="12" height="12" version="1.1"><metadata id="metadata4769"/><g id="layer1" transform="translate(0,-1040.3622)"><g style="display:inline" id="fire-station-12" transform="translate(-438,-33.999983)"><g id="g21514" transform="translate(-1,-1)"><path id="path5434" d="m 445.5,1076.3622 -1.5,3 -1.5,-1.5 c -0.33139,0.5826 -1.5,2 -1.5,3.5 0,2.2092 2.29086,4 4.5,4 2.20914,0 4.5,-1.7908 4.5,-4 0,-1.5 -1.16861,-2.9174 -1.5,-3.5 l -1.5,1.5 z" style="opacity:.3;color:#000;fill:#fff;stroke:#fff;stroke-width:2;stroke-linecap:round;stroke-linejoin:round;stroke-miterlimit:4;stroke-opacity:1;stroke-dasharray:none;stroke-dashoffset:0;marker:none;visibility:visible;display:inline;overflow:visible;enable-background:accumulate"/><path style="color:#000;fill:#444;fill-opacity:1;fill-rule:nonzero;stroke:none;stroke-width:2;marker:none;visibility:visible;display:inline;overflow:visible;enable-background:accumulate" id="path10041-3-2" d="m 445.5,1076.3622 -1.5,3 -1.5,-1.5 c -0.33139,0.5826 -1.5,2 -1.5,3.5 0,2.2092 2.29086,4 4.5,4 2.20914,0 4.5,-1.7908 4.5,-4 0,-1.5 -1.16861,-2.9174 -1.5,-3.5 l -1.5,1.5 z m 0,4.5 c 0,0 1.5,1.3423 1.5,2.5 0,0.5 -0.5,1 -1.5,1 -1,0 -1.5,-0.5 -1.5,-1 0,-1.118 1.5,-2.5 1.5,-2.5 z"/></g><rect style="opacity:.5;color:#000;fill:none;stroke:none;stroke-width:2;marker:none;visibility:visible;display:inline;overflow:visible;enable-background:accumulate" id="rect22292-6" width="12" height="12" x="438" y="1074.362"/></g></g></svg>