<svg xmlns="http://www.w3.org/2000/svg" xmlns:svg="http://www.w3.org/2000/svg" id="svg4764" width="12" height="12" version="1.1"><metadata id="metadata4769"/><g id="layer1" transform="translate(0,-1040.3622)"><g style="display:inline" id="harbor-12" transform="translate(-126,-322)"><path style="opacity:.3;color:#000;fill:#fff;fill-opacity:1;fill-rule:nonzero;stroke:#fff;stroke-width:2;stroke-linecap:butt;stroke-linejoin:round;stroke-miterlimit:4;stroke-opacity:1;stroke-dasharray:none;stroke-dashoffset:0;marker:none;visibility:visible;display:inline;overflow:visible;enable-background:accumulate" id="path7770" d="m 134,1363.3622 -1,1 0,1.9375 -3.40625,3.4063 C 129.24756,1369.2512 129,1368.8622 129,1368.3622 l 0,-1 1,0.5 0,-2.5 -2,1.5 0,1.5 0,4 5.5,0 1.5,-2 -2.5,0 0.5,1 -1,0 c -0.5,0 -0.88892,-0.2476 -1.34375,-0.5937 l 3.40625,-3.4063 1.9375,0 1,-1 0,-2 -1,-1 z m 0.5,1 1,0 0.5,0.5 0,1 -0.5,0.5 -1.00016,0.015 -0.49984,-0.5155 0,-1 z"/><path id="path7720" d="m 134,1363.3622 -1,1 0,1.9375 -3.40625,3.4063 C 129.24756,1369.2512 129,1368.8622 129,1368.3622 l 0,-1 1,0.5 0,-2.5 -2,1.5 0,1.5 0,4 5.5,0 1.5,-2 -2.5,0 0.5,1 -1,0 c -0.5,0 -0.88892,-0.2476 -1.34375,-0.5937 l 3.40625,-3.4063 1.9375,0 1,-1 0,-2 -1,-1 z m 0.5,1 1,0 0.5,0.5 0,1 -0.5,0.5 -1.00016,0.015 -0.49984,-0.5155 0,-1 z" style="color:#000;fill:#444;fill-opacity:1;fill-rule:nonzero;stroke:none;stroke-width:2;marker:none;visibility:visible;display:inline;overflow:visible;enable-background:accumulate"/><rect id="rect15860" width="12" height="12" x="126" y="1362.362" style="opacity:.3;color:#000;fill:none;stroke:none;stroke-width:2;marker:none;visibility:visible;display:inline;overflow:visible;enable-background:accumulate"/></g></g></svg>