<svg xmlns="http://www.w3.org/2000/svg" xmlns:svg="http://www.w3.org/2000/svg" id="svg4764" width="12" height="12" x="0" y="0" enable-background="new -402.5 403.5 12 12" version="1.1" viewBox="-402.5 403.5 12 12" xml:space="preserve"><metadata id="metadata27"/><g id="layer1" transform="translate(0,-1040.3622)"><path id="path4452" d="m -396.5,1444.8622 -2,2 -1,0 0,7 7,0 0,-9 -1,0 z m 0,1 1,0 0,1 -1,0 z m 2,0 1,0 0,1 -1,0 z m -2,2 1,0 2,2 0,1 -2,2 -1,0 -2,-2 0,-1 z m -1,2 0,0.75 1.25,1.25 0.5,0 1.25,-1.25 0,-0.75 z" style="fill:#454545;stroke:#fff;stroke-linejoin:round;stroke-linecap:round;stroke-width:2;stroke-miterlimit:4;stroke-dasharray:none;opacity:.3"/><path style="fill:#454545" id="path3291" d="m -396.5,1444.8622 -2,2 -1,0 0,7 7,0 0,-9 -1,0 z m 0,1 1,0 0,1 -1,0 z m 2,0 1,0 0,1 -1,0 z m -2,2 1,0 2,2 0,1 -2,2 -1,0 -2,-2 0,-1 z m -1,2 0,0.75 1.25,1.25 0.5,0 1.25,-1.25 0,-0.75 z"/></g></svg>