<svg xmlns="http://www.w3.org/2000/svg" xmlns:svg="http://www.w3.org/2000/svg" id="svg4764" width="12" height="12" version="1.1"><metadata id="metadata4769"/><g id="layer1" transform="translate(0,-1040.3622)"><g style="display:inline" id="music-12" transform="matrix(0.5,0,0,0.5,-198,395.18111)"><path id="path7691" d="m 563,242 0,5.5 -0.5,0 c -0.82843,0 -1.5,0.67155 -1.5,1.5 0,0.82845 0.67157,1.5 1.5,1.5 0.82842,0 1.5,-0.67155 1.5,-1.5 l 0,-4 3,0 0,2.5 -0.5,0 c -0.82842,0 -1.5,0.67155 -1.5,1.5 0,0.82845 0.67157,1.5 1.5,1.5 0.82842,0 1.5,-0.67155 1.5,-1.5 l 0,-7 -5,0 z" transform="matrix(2,0,0,2,-720,810.36218)" style="opacity:.3;color:#000;fill:#fff;fill-opacity:1;fill-rule:nonzero;stroke:#fff;stroke-width:2;stroke-linecap:round;stroke-linejoin:round;stroke-miterlimit:4;stroke-opacity:1;stroke-dasharray:none;stroke-dashoffset:0;marker:none;visibility:visible;display:inline;overflow:visible;enable-background:accumulate"/><g id="g7590"><rect id="rect7592" width="24" height="24" x="396" y="1290.362" style="color:#000;fill:none;stroke:none;stroke-width:2;marker:none;visibility:visible;display:inline;overflow:visible;enable-background:accumulate"/></g><path style="fill:#454545;display:inline" id="path7598" d="m 563,242 0,5.5 -0.5,0 c -0.82843,0 -1.5,0.67155 -1.5,1.5 0,0.82845 0.67157,1.5 1.5,1.5 0.82842,0 1.5,-0.67155 1.5,-1.5 l 0,-4 3,0 0,2.5 -0.5,0 c -0.82842,0 -1.5,0.67155 -1.5,1.5 0,0.82845 0.67157,1.5 1.5,1.5 0.82842,0 1.5,-0.67155 1.5,-1.5 l 0,-7 -5,0 z" transform="matrix(2,0,0,2,-720,810.36218)"/></g></g></svg>