<svg xmlns="http://www.w3.org/2000/svg" xmlns:svg="http://www.w3.org/2000/svg" id="svg4764" width="12" height="12" version="1.1"><metadata id="metadata4769"/><g id="layer1" transform="translate(0,-1040.3622)"><path id="path6204" d="M 5.5 1 L 4 2 L 3 4 L 3 8 L 10 8 L 10 4 L 9 2 L 7.5 1 L 5.5 1 z M 5.5 2 L 6 2 L 6 5 L 4 5 L 4.5 3.5 L 5.5 2 z M 7 2 L 7.5 2 L 8.5 3.5 L 9 5 L 7 5 L 7 2 z M 4 6 L 5 6 L 5 7 L 4 7 L 4 6 z M 8 6 L 9 6 L 9 7 L 8 7 L 8 6 z M 4 8.5 L 4 9 L 3 9.5 L 3 10 L 6 10 L 6 8.5 L 4 8.5 z M 7 8.5 L 7 10 L 10 10 L 10 9.5 L 9 9 L 9 8.5 L 7 8.5 z" transform="translate(0,1040.3622)" style="fill:#444;fill-opacity:1;stroke:#fff;stroke-width:2;stroke-miterlimit:4;stroke-dasharray:none;stroke-linejoin:round;stroke-linecap:round;opacity:.3"/><path style="fill:#444;fill-opacity:1;stroke:none" id="path3248" d="M 5.5 1 L 4 2 L 3 4 L 3 8 L 10 8 L 10 4 L 9 2 L 7.5 1 L 5.5 1 z M 5.5 2 L 6 2 L 6 5 L 4 5 L 4.5 3.5 L 5.5 2 z M 7 2 L 7.5 2 L 8.5 3.5 L 9 5 L 7 5 L 7 2 z M 4 6 L 5 6 L 5 7 L 4 7 L 4 6 z M 8 6 L 9 6 L 9 7 L 8 7 L 8 6 z M 4 8.5 L 4 9 L 3 9.5 L 3 10 L 6 10 L 6 8.5 L 4 8.5 z M 7 8.5 L 7 10 L 10 10 L 10 9.5 L 9 9 L 9 8.5 L 7 8.5 z" transform="translate(0,1040.3622)"/></g></svg>