<svg xmlns="http://www.w3.org/2000/svg" xmlns:svg="http://www.w3.org/2000/svg" id="svg4764" width="12" height="12" version="1.1"><metadata id="metadata4769"/><g id="layer1" transform="translate(0,-1040.3622)"><path id="path4509" d="M 5,1 4,2 4,7 4,8 9,8 9,7 9,2 8,1 z M 6,2 7,2 8,3 8,4 5,4 5,3 z M 5,6 6,6 6,7 5,7 z M 7,6 8,6 8,7 7,7 z M 4,8.5 4,9 3,9.5 3,10 6,10 6,8.5 z m 3,0 0,1.5 3,0 L 10,9.5 9,9 9,8.5 z" transform="translate(0,1040.3622)" style="fill:#444;fill-opacity:1;stroke:#fff;stroke-width:2;stroke-miterlimit:4;stroke-dasharray:none;stroke-linejoin:round;stroke-linecap:round;opacity:.3"/><path style="fill:#444;fill-opacity:1;stroke:none" id="path3108" d="M 5,1 4,2 4,7 4,8 9,8 9,7 9,2 8,1 z M 6,2 7,2 8,3 8,4 5,4 5,3 z M 5,6 6,6 6,7 5,7 z M 7,6 8,6 8,7 7,7 z M 4,8.5 4,9 3,9.5 3,10 6,10 6,8.5 z m 3,0 0,1.5 3,0 L 10,9.5 9,9 9,8.5 z" transform="translate(0,1040.3622)"/></g></svg>