<svg xmlns="http://www.w3.org/2000/svg" xmlns:svg="http://www.w3.org/2000/svg" id="svg4764" width="12" height="12" version="1.1"><metadata id="metadata4769"/><g id="layer1" transform="translate(0,-1040.3622)"><g style="display:inline" id="restaurant-12" transform="translate(-360,-9.9999826)"><g id="g21602"><path style="opacity:.3;color:#000;fill:#fff;fill-opacity:1;fill-rule:nonzero;stroke:#fff;stroke-width:2;stroke-linecap:butt;stroke-linejoin:round;stroke-miterlimit:4;stroke-opacity:1;stroke-dasharray:none;stroke-dashoffset:0;marker:none;visibility:visible;display:inline;overflow:visible;enable-background:accumulate" id="path5523" d="m 363.5,1051.3622 -0.5,0 c 0,0.8333 0,2.1667 0,3 0,0.5 1,0.5 1,1 l 0,6 1,0 0,-6 c 0,-0.5 1,-0.5 1,-1 0,-0.8333 0,-2.1667 0,-3 l -0.5,0 0,2 -0.75,0 0,-2 -0.5,0 0,2 -0.75,0 z m 6.5,0 c -0.5,0 -1.43377,0.1176 -1.75,0.75 -0.25,0.5 -0.25,1.25 -0.25,2.25 l 0,2.5 1,0 0,4.5 1,0 z"/><path id="rect6396-8" d="m 363.5,1051.3622 -0.5,0 c 0,0.8333 0,2.1667 0,3 0,0.5 1,0.5 1,1 l 0,6 1,0 0,-6 c 0,-0.5 1,-0.5 1,-1 0,-0.8333 0,-2.1667 0,-3 l -0.5,0 0,2 -0.75,0 0,-2 -0.5,0 0,2 -0.75,0 z m 6.5,0 c -0.5,0 -1.43377,0.1176 -1.75,0.75 -0.25,0.5 -0.25,1.25 -0.25,2.25 l 0,2.5 1,0 0,4.5 1,0 z" style="color:#000;fill:#444;fill-opacity:1;fill-rule:nonzero;stroke:none;stroke-width:2;marker:none;visibility:visible;display:inline;overflow:visible;enable-background:accumulate"/></g><rect style="opacity:.5;color:#000;fill:none;stroke:none;stroke-width:2;marker:none;visibility:visible;display:inline;overflow:visible;enable-background:accumulate" id="rect22286-6" width="12" height="12" x="360" y="1050.362"/></g></g></svg>