<svg xmlns="http://www.w3.org/2000/svg" xmlns:svg="http://www.w3.org/2000/svg" id="svg4764" width="12" height="12" version="1.1"><metadata id="metadata4769"/><g id="layer1" transform="translate(0,-1040.3622)"><g style="display:inline" id="town-hall-12" transform="translate(-438,-57.999989)"><g id="g21518" transform="translate(0,-1)"><path id="path15745" d="m 448,1102.3622 -3.5,-2 -3.5,2 0,5 0,1 -1,1 9,0 -1,-1 0,-1 z m -6,2.5 0.5,-0.5 0.5,0.5 0,2.5 -1,0 z m 2,0 0.5,-0.5 0.5,0.5 0,2.5 -1,0 z m 2,0 0.5,-0.5 0.5,0.5 0,2.5 -1,0 z" style="opacity:.3;color:#000;fill:#fff;fill-opacity:1;fill-rule:nonzero;stroke:#fff;stroke-width:2;stroke-linecap:round;stroke-linejoin:round;stroke-miterlimit:4;stroke-opacity:1;stroke-dasharray:none;stroke-dashoffset:0;marker:none;visibility:visible;display:inline;overflow:visible;enable-background:accumulate"/><path style="color:#000;fill:#444;fill-opacity:1;fill-rule:nonzero;stroke:none;stroke-width:1;marker:none;visibility:visible;display:inline;overflow:visible;enable-background:accumulate" id="rect7645-6-5-0-0-5" d="m 444.5,1100.3622 -3.5,2 7,0 z m -3,3 c -0.27701,0 -0.5,0.223 -0.5,0.5 l 0,3.5 0,1 -1,1 9,0 -1,-1 0,-1 0,-3.5 c 0,-0.277 -0.223,-0.5 -0.5,-0.5 z m 0.5,1.5 0.5,-0.5 0.5,0.5 0,2.5 -1,0 z m 2,0 0.5,-0.5 0.5,0.5 0,2.5 -1,0 z m 2,0 0.5,-0.5 0.5,0.5 0,2.5 -1,0 z"/></g><rect style="opacity:.5;color:#000;fill:none;stroke:none;stroke-width:2;marker:none;visibility:visible;display:inline;overflow:visible;enable-background:accumulate" id="rect22298-3" width="12" height="12" x="438" y="1098.362"/></g></g></svg>