<svg xmlns="http://www.w3.org/2000/svg" xmlns:svg="http://www.w3.org/2000/svg" id="svg3053" width="40" height="20" version="1.1"><metadata id="metadata3058"/><g id="layer1" transform="translate(-235,-552.36218)"><g id="cliff-md" transform="translate(9.9999828,8.0000042)" style="fill:#a08a78;fill-opacity:1"><rect style="opacity:.5;color:#000;fill:#a08a78;fill-opacity:0;fill-rule:evenodd;stroke:none;stroke-width:1px;marker:none;visibility:visible;display:inline;overflow:visible;enable-background:accumulate" id="rect4443" width="8" height="7" x="243" y="-557.362" transform="scale(1,-1)"/><g id="g4454"><rect style="opacity:.5;color:#000;fill:#9a8a7e;fill-opacity:1;fill-rule:evenodd;stroke:none;stroke-width:1px;marker:none;visibility:visible;display:inline;overflow:visible;enable-background:accumulate" id="rect3833" width="8" height="1" x="243" y="-554.362" transform="scale(1,-1)"/><path id="rect3870" d="m 243,554.36218 2,0 -1.5,3 -0.5,0 z" style="opacity:.5;color:#000;fill:#9a8a7e;fill-opacity:1;fill-rule:evenodd;stroke:none;stroke-width:1px;marker:none;visibility:visible;display:inline;overflow:visible;enable-background:accumulate"/><path id="rect3907" d="m 247,554.36218 2,0 -1.5,1.5 -0.5,0 z" style="opacity:.5;color:#000;fill:#9a8a7e;fill-opacity:1;fill-rule:evenodd;stroke:none;stroke-width:1px;marker:none;visibility:visible;display:inline;overflow:visible;enable-background:accumulate"/></g></g><g id="cliff-lg" transform="matrix(1.3809524,0,0,1.3809524,-110.57142,-206.80463)" style="fill:#a08a78;fill-opacity:1"><rect id="rect4441" width="7.241" height="9.414" x="253.862" y="551.914" style="opacity:.5;color:#000;fill:#a08a78;fill-opacity:0;fill-rule:evenodd;stroke:none;stroke-width:1px;marker:none;visibility:visible;display:inline;overflow:visible;enable-background:accumulate"/><g id="g4449"><rect id="rect3009" width="7.241" height="1.086" x="253.862" y="-557.345" transform="scale(1,-1)" style="opacity:.5;color:#000;fill:#9a8a7e;fill-opacity:1;fill-rule:evenodd;stroke:none;stroke-width:1px;marker:none;visibility:visible;display:inline;overflow:visible;enable-background:accumulate"/><path id="rect3860" d="m 253.86206,557.34492 1.44827,0 -1.08621,3.98276 -0.36206,0 z" style="opacity:.5;color:#000;fill:#9a8a7e;fill-opacity:1;fill-rule:evenodd;stroke:none;stroke-width:1.38095236px;marker:none;visibility:visible;display:inline;overflow:visible;enable-background:accumulate"/><path id="rect3868" d="m 257.48274,557.34492 1.44828,0 -1.08621,1.81035 -0.36207,0 z" style="opacity:.5;color:#000;fill:#9a8a7e;fill-opacity:1;fill-rule:evenodd;stroke:none;stroke-width:1.38095236px;marker:none;visibility:visible;display:inline;overflow:visible;enable-background:accumulate"/></g></g><g id="g3925" transform="translate(0,4)" style="fill:#a08a78;fill-opacity:1"><g style="fill:#a08a78;fill-opacity:0" id="g4445" transform="matrix(0.85714618,0,0,4.9995957,34.284801,-2211.2247)"><rect style="opacity:.5;color:#000;fill:#a08a78;fill-opacity:0;fill-rule:evenodd;stroke:none;stroke-width:1px;marker:none;visibility:visible;display:inline;overflow:visible;enable-background:accumulate" id="rect4447" width="7" height="1" x="268" y="-554.362" transform="scale(1,-1)"/></g><g id="g4459"><g style="fill:#9a8a7e;fill-opacity:1" id="cliff-sm" transform="matrix(0.85714618,0,0,1,34.284801,4.000004)"><rect style="opacity:.5;color:#000;fill:#9a8a7e;fill-opacity:1;fill-rule:evenodd;stroke:none;stroke-width:1px;marker:none;visibility:visible;display:inline;overflow:visible;enable-background:accumulate" id="rect2995" width="7" height="1" x="268" y="-554.362" transform="scale(1,-1)"/></g><g style="fill:#9a8a7e;fill-opacity:1" id="g3911" transform="matrix(0.14285714,0,0,2.9998779,225.71427,-1101.6567)"><path style="opacity:.5;color:#000;fill:#9a8a7e;fill-opacity:1;fill-rule:evenodd;stroke:none;stroke-width:1px;marker:none;visibility:visible;display:inline;overflow:visible;enable-background:accumulate" id="rect3913" d="m 268,-554.02883 3.5,0 7,0.66669 -10.5,0 z" transform="scale(1,-1)"/></g><g style="fill:#9a8a7e;fill-opacity:1" id="g3915" transform="matrix(0.14285714,0,0,1.9999587,228.71427,-548.33929)"><path style="opacity:.5;color:#000;fill:#9a8a7e;fill-opacity:1;fill-rule:evenodd;stroke:none;stroke-width:1px;marker:none;visibility:visible;display:inline;overflow:visible;enable-background:accumulate" id="rect3917" d="m 268,-553.86217 3.5,0 7,0.50003 -10.5,0 z" transform="scale(1,-1)"/></g></g></g></g></svg>